<?xml version="1.0" encoding="UTF-8" standalone="no"?>
<!-- Created with Inkscape (http://www.inkscape.org/) -->

<svg
   xmlns:dc="http://purl.org/dc/elements/1.1/"
   xmlns:cc="http://creativecommons.org/ns#"
   xmlns:rdf="http://www.w3.org/1999/02/22-rdf-syntax-ns#"
   xmlns:svg="http://www.w3.org/2000/svg"
   xmlns="http://www.w3.org/2000/svg"
   xmlns:sodipodi="http://sodipodi.sourceforge.net/DTD/sodipodi-0.dtd"
   xmlns:inkscape="http://www.inkscape.org/namespaces/inkscape"
   width="601.4444"
   height="520.86609"
   id="svg2"
   version="1.1"
   inkscape:version="0.48.5 r10040"
   sodipodi:docname="BackgroundGreen.svg">
  <defs
     id="defs4" />
  <sodipodi:namedview
     id="base"
     pagecolor="#ffffff"
     bordercolor="#666666"
     borderopacity="1.0"
     inkscape:pageopacity="0.0"
     inkscape:pageshadow="2"
     inkscape:zoom="0.1767767"
     inkscape:cx="-184.68978"
     inkscape:cy="2201.9196"
     inkscape:document-units="px"
     inkscape:current-layer="layer1"
     showgrid="true"
     inkscape:window-width="1366"
     inkscape:window-height="715"
     inkscape:window-x="-8"
     inkscape:window-y="-8"
     inkscape:window-maximized="1"
     showguides="true"
     inkscape:guide-bbox="true"
     fit-margin-top="0"
     fit-margin-left="0"
     fit-margin-right="0"
     fit-margin-bottom="0">
    <inkscape:grid
       units="px"
       empspacing="7"
       visible="true"
       enabled="true"
       snapvisiblegridlinesonly="false"
       type="axonomgrid"
       id="grid2985"
       originy="673.2283px"
       originx="-981.95011px" />
    <sodipodi:guide
       orientation="0,1"
       position="-1565.7894,1628.964"
       id="guide4040" />
  </sodipodi:namedview>
  <metadata
     id="metadata7">
    <rdf:RDF>
      <cc:Work
         rdf:about="">
        <dc:format>image/svg+xml</dc:format>
        <dc:type
           rdf:resource="http://purl.org/dc/dcmitype/StillImage" />
        <dc:title />
      </cc:Work>
    </rdf:RDF>
  </metadata>
  <g
     inkscape:label="Livello 1"
     inkscape:groupmode="layer"
     id="layer1"
     transform="translate(-981.95011,-1204.9244)">
    <g
       id="g4255" />
    <g
       id="g4936"
       transform="translate(1604.875,-30.118142)">
      <path
         sodipodi:nodetypes="ccccc"
         style="fill:#0f9921;fill-opacity:1;stroke:none"
         d="m -622.92489,1731.1055 42.9603,24.8031 0,-49.6063 -42.9603,-24.8031 z"
         id="path4938"
         inkscape:connector-curvature="0" />
      <path
         sodipodi:nodetypes="ccccc"
         style="fill:#004500;fill-opacity:1;stroke:none"
         d="m -579.96459,1706.3023 42.9488,-24.8031 0,49.6063 -42.96031,24.8031 z"
         id="path4940"
         inkscape:connector-curvature="0" />
      <path
         sodipodi:nodetypes="ccccc"
         inkscape:connector-curvature="0"
         id="path4942"
         d="m -537.00426,1731.1055 42.9603,24.8031 -0.003,-49.6042 -42.9575,-24.8052 z"
         style="fill:#0f9921;fill-opacity:1;stroke:none" />
      <path
         sodipodi:nodetypes="ccccc"
         inkscape:connector-curvature="0"
         id="path4944"
         d="m -494.05546,1706.3028 42.9603,-24.8036 0,49.6063 -42.96064,24.8031 z"
         style="fill:#004500;fill-opacity:1;stroke:none" />
      <path
         sodipodi:nodetypes="ccccc"
         inkscape:connector-curvature="0"
         id="path4946"
         d="m -451.08363,1731.1055 42.9603,24.8031 0,-49.6063 -42.9603,-24.8031 z"
         style="fill:#0f9921;fill-opacity:1;stroke:none" />
      <path
         sodipodi:nodetypes="ccccc"
         inkscape:connector-curvature="0"
         id="path4948"
         d="m -408.12333,1706.3023 42.96033,-24.8031 0,49.6063 -42.96033,24.8031 z"
         style="fill:#004500;fill-opacity:1;stroke:none" />
      <path
         sodipodi:nodetypes="ccccc"
         style="fill:#0f9921;fill-opacity:1;stroke:none"
         d="m -365.163,1731.1055 42.9603,24.8031 0,-49.6063 -42.9603,-24.8031 z"
         id="path4950"
         inkscape:connector-curvature="0" />
      <path
         sodipodi:nodetypes="ccccc"
         style="fill:#004500;fill-opacity:1;stroke:none"
         d="m -322.2027,1706.3023 42.96034,-24.8031 0,49.6063 -42.96034,24.8031 z"
         id="path4952"
         inkscape:connector-curvature="0" />
      <path
         sodipodi:nodetypes="ccccc"
         style="fill:#004500;fill-opacity:1;stroke:none"
         d="m -21.480472,1731.1055 -42.960328,24.8031 0,-49.6063 42.960328,-24.8031 z"
         id="path4954"
         inkscape:connector-curvature="0" />
      <path
         sodipodi:nodetypes="ccccc"
         style="fill:#0f9921;fill-opacity:1;stroke:none"
         d="m -64.4408,1706.3023 -42.9603,-24.8031 -1.4e-4,49.6063 42.96044,24.8031 z"
         id="path4956"
         inkscape:connector-curvature="0" />
      <path
         sodipodi:nodetypes="ccccc"
         inkscape:connector-curvature="0"
         id="path4958"
         d="m -107.4011,1731.1055 -42.96033,24.8031 -6e-5,-49.6063 42.96039,-24.8031 z"
         style="fill:#004500;fill-opacity:1;stroke:none" />
      <path
         sodipodi:nodetypes="ccccc"
         inkscape:connector-curvature="0"
         id="path4960"
         d="m -150.36143,1706.3023 -42.9603,-24.8031 0,49.6063 42.9603,24.8031 z"
         style="fill:#0f9921;fill-opacity:1;stroke:none" />
      <path
         sodipodi:nodetypes="ccccc"
         inkscape:connector-curvature="0"
         id="path4962"
         d="m -193.32173,1731.1055 -42.96033,24.8031 0,-49.6063 42.96033,-24.8031 z"
         style="fill:#004500;fill-opacity:1;stroke:none" />
      <path
         sodipodi:nodetypes="ccccc"
         inkscape:connector-curvature="0"
         id="path4964"
         d="m -236.28206,1706.3023 -42.9603,-24.8031 0,49.6063 42.9603,24.8031 z"
         style="fill:#0f9921;fill-opacity:1;stroke:none" />
      <path
         inkscape:connector-curvature="0"
         id="path4966"
         d="m -579.96456,1656.696 42.9603,24.8032 0,-49.6063 -42.9603,-24.8032 z"
         style="fill:#0f9921;fill-opacity:1;stroke:none"
         sodipodi:nodetypes="ccccc" />
      <path
         inkscape:connector-curvature="0"
         id="path4968"
         d="m -537.00426,1631.8929 42.9488,-24.8032 0.0112,49.6063 -42.97153,24.8032 z"
         style="fill:#004500;fill-opacity:1;stroke:none"
         sodipodi:nodetypes="ccccc" />
      <path
         style="fill:#0f9921;fill-opacity:1;stroke:none"
         d="m -494.04393,1656.6958 42.9603,24.8034 -0.003,-49.6043 -42.9575,-24.8052 z"
         id="path4970"
         inkscape:connector-curvature="0"
         sodipodi:nodetypes="ccccc" />
      <path
         style="fill:#004500;fill-opacity:1;stroke:none"
         d="m -451.08732,1631.8949 42.96402,-24.8052 0,49.6063 -42.96033,24.8032 z"
         id="path4972"
         inkscape:connector-curvature="0"
         sodipodi:nodetypes="ccccc" />
      <path
         style="fill:#0f9921;fill-opacity:1;stroke:none"
         d="m -408.1233,1656.696 42.9603,24.8032 0,-49.6063 -42.9603,-24.8032 z"
         id="path4974"
         inkscape:connector-curvature="0"
         sodipodi:nodetypes="ccccc" />
      <path
         style="fill:#004500;fill-opacity:1;stroke:none"
         d="m -365.163,1631.8929 42.96033,-24.8032 0,49.6063 -42.96033,24.8032 z"
         id="path4976"
         inkscape:connector-curvature="0"
         sodipodi:nodetypes="ccccc" />
      <path
         inkscape:connector-curvature="0"
         id="path4978"
         d="m -322.20267,1656.696 42.96031,24.8032 0,-49.6063 -42.96031,-24.8032 z"
         style="fill:#0f9921;fill-opacity:1;stroke:none"
         sodipodi:nodetypes="ccccc" />
      <path
         inkscape:connector-curvature="0"
         id="path4980"
         d="m -279.24236,1631.8929 42.96033,-24.8032 0,49.6063 -42.96033,24.8032 z"
         style="fill:#004500;fill-opacity:1;stroke:none"
         sodipodi:nodetypes="ccccc" />
      <path
         style="fill:#004500;fill-opacity:1;stroke:none"
         d="m -64.440772,1656.696 -42.960328,24.8032 -6e-5,-49.6063 42.960388,-24.8032 z"
         id="path4982"
         inkscape:connector-curvature="0"
         sodipodi:nodetypes="ccccc" />
      <path
         style="fill:#0f9921;fill-opacity:1;stroke:none"
         d="m -107.4011,1631.8929 -42.9603,-24.8032 0,49.6063 42.9603,24.8032 z"
         id="path4984"
         inkscape:connector-curvature="0"
         sodipodi:nodetypes="ccccc" />
      <path
         style="fill:#004500;fill-opacity:1;stroke:none"
         d="m -150.3614,1656.696 -42.96033,24.8032 0,-49.6063 42.96033,-24.8032 z"
         id="path4986"
         inkscape:connector-curvature="0"
         sodipodi:nodetypes="ccccc" />
      <path
         style="fill:#0f9921;fill-opacity:1;stroke:none"
         d="m -193.32173,1631.8929 -42.9603,-24.8032 0,49.6063 42.9603,24.8032 z"
         id="path4988"
         inkscape:connector-curvature="0"
         sodipodi:nodetypes="ccccc" />
      <path
         sodipodi:nodetypes="ccccc"
         style="fill:#0f9921;fill-opacity:1;stroke:none"
         d="m -536.99678,1582.2889 42.9603,24.8032 0,-49.6063 -42.9603,-24.8032 z"
         id="path4990"
         inkscape:connector-curvature="0" />
      <path
         sodipodi:nodetypes="ccccc"
         style="fill:#004500;fill-opacity:1;stroke:none"
         d="m -494.03648,1557.4858 42.94132,-24.8055 0.0196,49.6086 -42.97932,24.8008 z"
         id="path4992"
         inkscape:connector-curvature="0" />
      <path
         sodipodi:nodetypes="ccccc"
         inkscape:connector-curvature="0"
         id="path4994"
         d="m -451.07615,1582.2889 42.9603,24.8032 -0.003,-49.6043 -42.9575,-24.8052 z"
         style="fill:#0f9921;fill-opacity:1;stroke:none" />
      <path
         sodipodi:nodetypes="ccccc"
         inkscape:connector-curvature="0"
         id="path4996"
         d="m -408.11955,1557.4878 42.96403,-24.8052 0,49.6063 -42.96033,24.8032 z"
         style="fill:#004500;fill-opacity:1;stroke:none" />
      <path
         sodipodi:nodetypes="ccccc"
         inkscape:connector-curvature="0"
         id="path4998"
         d="m -365.15552,1582.2889 42.96029,24.8032 0,-49.6063 -42.96029,-24.8032 z"
         style="fill:#0f9921;fill-opacity:1;stroke:none" />
      <path
         sodipodi:nodetypes="ccccc"
         inkscape:connector-curvature="0"
         id="path5000"
         d="m -322.19523,1557.4858 42.96034,-24.8032 0,49.6063 -42.96034,24.8032 z"
         style="fill:#004500;fill-opacity:1;stroke:none" />
      <path
         sodipodi:nodetypes="ccccc"
         style="fill:#0f9921;fill-opacity:1;stroke:none"
         d="m -279.23489,1582.2889 42.9603,24.8032 0,-49.6063 -42.9603,-24.8032 z"
         id="path5002"
         inkscape:connector-curvature="0" />
      <path
         sodipodi:nodetypes="ccccc"
         style="fill:#004500;fill-opacity:1;stroke:none"
         d="m -236.27459,1557.4858 42.96033,-24.8032 0,49.6063 -42.96033,24.8032 z"
         id="path5004"
         inkscape:connector-curvature="0" />
      <path
         sodipodi:nodetypes="ccccc"
         inkscape:connector-curvature="0"
         id="path5006"
         d="m -107.39363,1582.2889 -42.96033,24.8032 0,-49.6063 42.96033,-24.8032 z"
         style="fill:#004500;fill-opacity:1;stroke:none" />
      <path
         sodipodi:nodetypes="ccccc"
         inkscape:connector-curvature="0"
         id="path5008"
         d="m -150.35396,1557.4858 -42.9603,-24.8032 0,49.6063 42.9603,24.8032 z"
         style="fill:#0f9921;fill-opacity:1;stroke:none" />
      <path
         inkscape:connector-curvature="0"
         id="path5010"
         d="m -494.04393,1507.8771 42.9603,24.8032 0,-49.6063 -42.9603,-24.8032 z"
         style="fill:#0f9921;fill-opacity:1;stroke:none"
         sodipodi:nodetypes="ccccc" />
      <path
         inkscape:connector-curvature="0"
         id="path5012"
         d="m -451.09516,1483.074 42.96033,-24.8032 0,49.6063 -42.96033,24.8032 z"
         style="fill:#004500;fill-opacity:1;stroke:none"
         sodipodi:nodetypes="ccccc" />
      <path
         style="fill:#0f9921;fill-opacity:1;stroke:none"
         d="m -408.1233,1507.8771 42.9603,24.8032 -0.003,-49.6043 -42.9575,-24.8052 z"
         id="path5014"
         inkscape:connector-curvature="0"
         sodipodi:nodetypes="ccccc" />
      <path
         style="fill:#004500;fill-opacity:1;stroke:none"
         d="m -365.16669,1483.076 42.96402,-24.8052 0,49.6063 -42.96033,24.8032 z"
         id="path5016"
         inkscape:connector-curvature="0"
         sodipodi:nodetypes="ccccc" />
      <path
         style="fill:#0f9921;fill-opacity:1;stroke:none"
         d="m -322.20267,1507.8771 42.96031,24.8032 0,-49.6063 -42.96031,-24.8032 z"
         id="path5018"
         inkscape:connector-curvature="0"
         sodipodi:nodetypes="ccccc" />
      <path
         style="fill:#004500;fill-opacity:1;stroke:none"
         d="m -279.24236,1483.074 42.96033,-24.8032 0,49.6063 -42.96033,24.8032 z"
         id="path5020"
         inkscape:connector-curvature="0"
         sodipodi:nodetypes="ccccc" />
      <path
         inkscape:connector-curvature="0"
         id="path5022"
         d="m -236.28203,1507.8771 42.9603,24.8032 0,-49.6063 -42.9603,-24.8032 z"
         style="fill:#0f9921;fill-opacity:1;stroke:none"
         sodipodi:nodetypes="ccccc" />
      <path
         inkscape:connector-curvature="0"
         id="path5024"
         d="m -193.32173,1483.074 42.96033,-24.8032 0,49.6063 -42.96033,24.8032 z"
         style="fill:#004500;fill-opacity:1;stroke:none"
         sodipodi:nodetypes="ccccc" />
      <path
         sodipodi:nodetypes="ccccc"
         style="fill:#0f9921;fill-opacity:1;stroke:none"
         d="m -451.07615,1433.47 42.9603,24.8032 0,-49.6063 -42.9603,-24.8032 z"
         id="path5026"
         inkscape:connector-curvature="0" />
      <path
         sodipodi:nodetypes="ccccc"
         style="fill:#004500;fill-opacity:1;stroke:none"
         d="m -408.11585,1408.6669 42.94132,-24.8055 0.0196,49.6086 -42.97931,24.8008 z"
         id="path5028"
         inkscape:connector-curvature="0" />
      <path
         sodipodi:nodetypes="ccccc"
         inkscape:connector-curvature="0"
         id="path5030"
         d="m -365.15552,1433.47 42.96029,24.8032 -0.003,-49.6043 -42.95749,-24.8052 z"
         style="fill:#0f9921;fill-opacity:1;stroke:none" />
      <path
         sodipodi:nodetypes="ccccc"
         inkscape:connector-curvature="0"
         id="path5032"
         d="m -322.19892,1408.6689 42.96403,-24.8052 0,49.6063 -42.96034,24.8032 z"
         style="fill:#004500;fill-opacity:1;stroke:none" />
      <path
         sodipodi:nodetypes="ccccc"
         inkscape:connector-curvature="0"
         id="path5034"
         d="m -279.23489,1433.47 42.9603,24.8032 0,-49.6063 -42.9603,-24.8032 z"
         style="fill:#0f9921;fill-opacity:1;stroke:none" />
      <path
         sodipodi:nodetypes="ccccc"
         inkscape:connector-curvature="0"
         id="path5036"
         d="m -236.27459,1408.6669 42.96033,-24.8032 0,49.6063 -42.96033,24.8032 z"
         style="fill:#004500;fill-opacity:1;stroke:none" />
      <path
         inkscape:connector-curvature="0"
         id="path5038"
         d="m -408.11582,1359.0606 42.9603,24.8031 0,-49.6063 -42.9603,-24.8031 z"
         style="fill:#0f9921;fill-opacity:1;stroke:none"
         sodipodi:nodetypes="ccccc" />
      <path
         inkscape:connector-curvature="0"
         id="path5040"
         d="m -365.15552,1334.2574 42.96032,-24.8031 0,49.6063 -42.9678,24.8008 z"
         style="fill:#004500;fill-opacity:1;stroke:none"
         sodipodi:nodetypes="ccccc" />
      <path
         style="fill:#0f9921;fill-opacity:1;stroke:none"
         d="m -322.1952,1359.0606 42.96031,24.8031 -0.003,-49.6042 -42.95751,-24.8052 z"
         id="path5042"
         inkscape:connector-curvature="0"
         sodipodi:nodetypes="ccccc" />
      <path
         style="fill:#004500;fill-opacity:1;stroke:none"
         d="m -279.23858,1334.2595 42.96402,-24.8052 0,49.6063 -42.96033,24.8031 z"
         id="path5044"
         inkscape:connector-curvature="0"
         sodipodi:nodetypes="ccccc" />
      <path
         sodipodi:nodetypes="ccccc"
         style="fill:#0f9921;fill-opacity:1;stroke:none"
         d="m -365.15552,1284.6511 42.96029,24.8032 0,-49.6063 -42.96029,-24.8032 z"
         id="path5046"
         inkscape:connector-curvature="0" />
      <path
         sodipodi:nodetypes="ccccc"
         style="fill:#004500;fill-opacity:1;stroke:none"
         d="m -322.19523,1259.848 42.94134,-24.8055 0.019,49.6086 -42.97932,24.8008 z"
         id="path5048"
         inkscape:connector-curvature="0" />
    </g>
  </g>
</svg>
