<?xml version="1.0" encoding="UTF-8" standalone="no"?>
<!-- Created with Inkscape (http://www.inkscape.org/) -->

<svg
   xmlns:dc="http://purl.org/dc/elements/1.1/"
   xmlns:cc="http://creativecommons.org/ns#"
   xmlns:rdf="http://www.w3.org/1999/02/22-rdf-syntax-ns#"
   xmlns:svg="http://www.w3.org/2000/svg"
   xmlns="http://www.w3.org/2000/svg"
   xmlns:sodipodi="http://sodipodi.sourceforge.net/DTD/sodipodi-0.dtd"
   xmlns:inkscape="http://www.inkscape.org/namespaces/inkscape"
   width="601.4444"
   height="520.86615"
   id="svg2"
   version="1.1"
   inkscape:version="0.48.5 r10040"
   sodipodi:docname="BackgroundBrown.svg">
  <defs
     id="defs4" />
  <sodipodi:namedview
     id="base"
     pagecolor="#ffffff"
     bordercolor="#666666"
     borderopacity="1.0"
     inkscape:pageopacity="0.0"
     inkscape:pageshadow="2"
     inkscape:zoom="0.08838835"
     inkscape:cx="2013.8723"
     inkscape:cy="-664.12515"
     inkscape:document-units="px"
     inkscape:current-layer="layer1"
     showgrid="true"
     inkscape:window-width="1366"
     inkscape:window-height="715"
     inkscape:window-x="-8"
     inkscape:window-y="-8"
     inkscape:window-maximized="1"
     showguides="true"
     inkscape:guide-bbox="true"
     fit-margin-top="0"
     fit-margin-left="0"
     fit-margin-right="0"
     fit-margin-bottom="0">
    <inkscape:grid
       units="px"
       empspacing="7"
       visible="true"
       enabled="true"
       snapvisiblegridlinesonly="false"
       type="axonomgrid"
       id="grid2985"
       originy="-279.92128px"
       originx="-73.64625px" />
    <sodipodi:guide
       orientation="0,1"
       position="-657.48553,675.81443"
       id="guide4040" />
  </sodipodi:namedview>
  <metadata
     id="metadata7">
    <rdf:RDF>
      <cc:Work
         rdf:about="">
        <dc:format>image/svg+xml</dc:format>
        <dc:type
           rdf:resource="http://purl.org/dc/dcmitype/StillImage" />
        <dc:title />
      </cc:Work>
    </rdf:RDF>
  </metadata>
  <g
     inkscape:label="Livello 1"
     inkscape:groupmode="layer"
     id="layer1"
     transform="translate(-73.64625,-251.77473)">
    <g
       id="g4255" />
    <g
       transform="matrix(2.7997582,0,0,2.7997582,643.2082,-1129.1805)"
       id="g3857">
      <path
         sodipodi:nodetypes="ccccc"
         style="fill:#a99856;fill-opacity:1;stroke:none"
         d="m -203.43255,670.42155 15.34429,8.85903 0,-17.71806 -15.34429,-8.85904 z"
         id="path3859"
         inkscape:connector-curvature="0" />
      <path
         sodipodi:nodetypes="ccccc"
         style="fill:#695e36;fill-opacity:1;stroke:none"
         d="m -188.08826,661.56252 15.34018,-8.85904 0,17.71807 -15.34429,8.85903 z"
         id="path3861"
         inkscape:connector-curvature="0" />
      <path
         sodipodi:nodetypes="ccccc"
         inkscape:connector-curvature="0"
         id="path3863"
         d="m -172.74396,670.42155 15.34429,8.85903 -0.001,-17.71733 -15.34329,-8.85977 z"
         style="fill:#a99856;fill-opacity:1;stroke:none" />
      <path
         sodipodi:nodetypes="ccccc"
         inkscape:connector-curvature="0"
         id="path3865"
         d="m -157.40378,661.56252 15.34429,-8.85904 0,17.71807 -15.34441,8.85903 z"
         style="fill:#695e36;fill-opacity:1;stroke:none" />
      <path
         sodipodi:nodetypes="ccccc"
         inkscape:connector-curvature="0"
         id="path3867"
         d="m -142.05537,670.42155 15.34429,8.85903 0,-17.71806 -15.34429,-8.85904 z"
         style="fill:#a99856;fill-opacity:1;stroke:none" />
      <path
         sodipodi:nodetypes="ccccc"
         inkscape:connector-curvature="0"
         id="path3869"
         d="m -126.71108,661.56252 15.3443,-8.85904 0,17.71807 -15.3443,8.85903 z"
         style="fill:#695e36;fill-opacity:1;stroke:none" />
      <path
         sodipodi:nodetypes="ccccc"
         style="fill:#a99856;fill-opacity:1;stroke:none"
         d="m -111.36678,670.42155 15.344287,8.85903 0,-17.71806 -15.344287,-8.85904 z"
         id="path3876"
         inkscape:connector-curvature="0" />
      <path
         sodipodi:nodetypes="ccccc"
         style="fill:#695e36;fill-opacity:1;stroke:none"
         d="m -96.022493,661.56252 15.344303,-8.85904 0,17.71807 -15.344303,8.85903 z"
         id="path3879"
         inkscape:connector-curvature="0" />
      <path
         sodipodi:nodetypes="ccccc"
         style="fill:#695e36;fill-opacity:1;stroke:none"
         d="m 11.387579,670.42155 -15.3442993,8.85903 0,-17.71806 15.3442993,-8.85904 z"
         id="path3881"
         inkscape:connector-curvature="0" />
      <path
         sodipodi:nodetypes="ccccc"
         style="fill:#a99856;fill-opacity:1;stroke:none"
         d="m -3.9567203,661.56252 -15.3442897,-8.85904 -5e-5,17.71807 15.3443397,8.85903 z"
         id="path3883"
         inkscape:connector-curvature="0" />
      <path
         sodipodi:nodetypes="ccccc"
         inkscape:connector-curvature="0"
         id="path3885"
         d="m -19.30101,670.42155 -15.3443,8.85903 -2e-5,-17.71806 15.34432,-8.85904 z"
         style="fill:#695e36;fill-opacity:1;stroke:none" />
      <path
         sodipodi:nodetypes="ccccc"
         inkscape:connector-curvature="0"
         id="path3887"
         d="m -34.64531,661.56252 -15.34429,-8.85904 0,17.71807 15.34429,8.85903 z"
         style="fill:#a99856;fill-opacity:1;stroke:none" />
      <path
         sodipodi:nodetypes="ccccc"
         inkscape:connector-curvature="0"
         id="path3889"
         d="m -49.9896,670.42155 -15.3443,8.85903 0,-17.71806 15.3443,-8.85904 z"
         style="fill:#695e36;fill-opacity:1;stroke:none" />
      <path
         sodipodi:nodetypes="ccccc"
         inkscape:connector-curvature="0"
         id="path3891"
         d="m -65.3339,661.56252 -15.34429,-8.85904 0,17.71807 15.34429,8.85903 z"
         style="fill:#a99856;fill-opacity:1;stroke:none" />
      <path
         inkscape:connector-curvature="0"
         id="path3893"
         d="m -188.08825,643.84445 15.34429,8.85903 0,-17.71806 -15.34429,-8.85904 z"
         style="fill:#a99856;fill-opacity:1;stroke:none"
         sodipodi:nodetypes="ccccc" />
      <path
         inkscape:connector-curvature="0"
         id="path3895"
         d="m -172.74396,634.98542 15.34018,-8.85903 0.004,17.71806 -15.3483,8.85903 z"
         style="fill:#695e36;fill-opacity:1;stroke:none"
         sodipodi:nodetypes="ccccc" />
      <path
         style="fill:#a99856;fill-opacity:1;stroke:none"
         d="m -157.39966,643.84445 15.34429,8.85903 -10e-4,-17.71733 -15.34329,-8.85977 z"
         id="path3897"
         inkscape:connector-curvature="0"
         sodipodi:nodetypes="ccccc" />
      <path
         style="fill:#695e36;fill-opacity:1;stroke:none"
         d="m -142.05669,634.98615 15.34562,-8.85977 0,17.71807 -15.3443,8.85903 z"
         id="path3899"
         inkscape:connector-curvature="0"
         sodipodi:nodetypes="ccccc" />
      <path
         style="fill:#a99856;fill-opacity:1;stroke:none"
         d="m -126.71107,643.84445 15.34429,8.85903 0,-17.71806 -15.34429,-8.85904 z"
         id="path3901"
         inkscape:connector-curvature="0"
         sodipodi:nodetypes="ccccc" />
      <path
         style="fill:#695e36;fill-opacity:1;stroke:none"
         d="m -111.36678,634.98542 15.344297,-8.85904 0,17.71807 -15.344297,8.85903 z"
         id="path3903"
         inkscape:connector-curvature="0"
         sodipodi:nodetypes="ccccc" />
      <path
         inkscape:connector-curvature="0"
         id="path3905"
         d="m -96.022483,643.84445 15.344293,8.85903 0,-17.71806 -15.344293,-8.85904 z"
         style="fill:#a99856;fill-opacity:1;stroke:none"
         sodipodi:nodetypes="ccccc" />
      <path
         inkscape:connector-curvature="0"
         id="path3907"
         d="m -80.67819,634.98542 15.3443,-8.85904 0,17.71807 -15.3443,8.85903 z"
         style="fill:#695e36;fill-opacity:1;stroke:none"
         sodipodi:nodetypes="ccccc" />
      <path
         style="fill:#695e36;fill-opacity:1;stroke:none"
         d="m -3.9567103,643.84445 -15.3442997,8.85903 -2e-5,-17.71806 15.3443197,-8.85904 z"
         id="path3909"
         inkscape:connector-curvature="0"
         sodipodi:nodetypes="ccccc" />
      <path
         style="fill:#a99856;fill-opacity:1;stroke:none"
         d="m -19.30101,634.98542 -15.34429,-8.85904 0,17.71807 15.34429,8.85903 z"
         id="path3911"
         inkscape:connector-curvature="0"
         sodipodi:nodetypes="ccccc" />
      <path
         style="fill:#695e36;fill-opacity:1;stroke:none"
         d="m -34.6453,643.84445 -15.3443,8.85903 0,-17.71806 15.3443,-8.85904 z"
         id="path3913"
         inkscape:connector-curvature="0"
         sodipodi:nodetypes="ccccc" />
      <path
         style="fill:#a99856;fill-opacity:1;stroke:none"
         d="m -49.9896,634.98542 -15.34429,-8.85904 0,17.71807 15.34429,8.85903 z"
         id="path3915"
         inkscape:connector-curvature="0"
         sodipodi:nodetypes="ccccc" />
      <path
         sodipodi:nodetypes="ccccc"
         style="fill:#a99856;fill-opacity:1;stroke:none"
         d="m -172.74129,617.26819 15.34429,8.85903 0,-17.71806 -15.34429,-8.85904 z"
         id="path3917"
         inkscape:connector-curvature="0" />
      <path
         sodipodi:nodetypes="ccccc"
         style="fill:#695e36;fill-opacity:1;stroke:none"
         d="m -157.397,608.40916 15.33751,-8.85987 0.007,17.7189 -15.35108,8.8582 z"
         id="path3919"
         inkscape:connector-curvature="0" />
      <path
         sodipodi:nodetypes="ccccc"
         inkscape:connector-curvature="0"
         id="path3921"
         d="m -142.0527,617.26819 15.34429,8.85903 -0.001,-17.71733 -15.34329,-8.85977 z"
         style="fill:#a99856;fill-opacity:1;stroke:none" />
      <path
         sodipodi:nodetypes="ccccc"
         inkscape:connector-curvature="0"
         id="path3923"
         d="m -126.70973,608.40989 15.34562,-8.85977 0,17.71807 -15.3443,8.85903 z"
         style="fill:#695e36;fill-opacity:1;stroke:none" />
      <path
         sodipodi:nodetypes="ccccc"
         inkscape:connector-curvature="0"
         id="path3925"
         d="m -111.36411,617.26819 15.344287,8.85903 0,-17.71806 -15.344287,-8.85904 z"
         style="fill:#a99856;fill-opacity:1;stroke:none" />
      <path
         sodipodi:nodetypes="ccccc"
         inkscape:connector-curvature="0"
         id="path3927"
         d="m -96.019823,608.40916 15.344303,-8.85904 0,17.71807 -15.344303,8.85903 z"
         style="fill:#695e36;fill-opacity:1;stroke:none" />
      <path
         sodipodi:nodetypes="ccccc"
         style="fill:#a99856;fill-opacity:1;stroke:none"
         d="m -80.67552,617.26819 15.34429,8.85903 0,-17.71806 -15.34429,-8.85904 z"
         id="path3929"
         inkscape:connector-curvature="0" />
      <path
         sodipodi:nodetypes="ccccc"
         style="fill:#695e36;fill-opacity:1;stroke:none"
         d="m -65.33123,608.40916 15.3443,-8.85904 0,17.71807 -15.3443,8.85903 z"
         id="path3931"
         inkscape:connector-curvature="0" />
      <path
         sodipodi:nodetypes="ccccc"
         inkscape:connector-curvature="0"
         id="path3933"
         d="m -19.29834,617.26819 -15.3443,8.85903 0,-17.71806 15.3443,-8.85904 z"
         style="fill:#695e36;fill-opacity:1;stroke:none" />
      <path
         sodipodi:nodetypes="ccccc"
         inkscape:connector-curvature="0"
         id="path3935"
         d="m -34.64264,608.40916 -15.34429,-8.85904 0,17.71807 15.34429,8.85903 z"
         style="fill:#a99856;fill-opacity:1;stroke:none" />
      <path
         inkscape:connector-curvature="0"
         id="path3937"
         d="m -157.39966,590.69025 15.34429,8.85903 0,-17.71806 -15.34429,-8.85904 z"
         style="fill:#a99856;fill-opacity:1;stroke:none"
         sodipodi:nodetypes="ccccc" />
      <path
         inkscape:connector-curvature="0"
         id="path3939"
         d="m -142.05949,581.83123 15.3443,-8.85904 0,17.71807 -15.3443,8.85903 z"
         style="fill:#695e36;fill-opacity:1;stroke:none"
         sodipodi:nodetypes="ccccc" />
      <path
         style="fill:#a99856;fill-opacity:1;stroke:none"
         d="m -126.71107,590.69025 15.34429,8.85903 -10e-4,-17.71733 -15.34329,-8.85977 z"
         id="path3941"
         inkscape:connector-curvature="0"
         sodipodi:nodetypes="ccccc" />
      <path
         style="fill:#695e36;fill-opacity:1;stroke:none"
         d="m -111.3681,581.83195 15.345617,-8.85977 0,17.71807 -15.344297,8.85903 z"
         id="path3943"
         inkscape:connector-curvature="0"
         sodipodi:nodetypes="ccccc" />
      <path
         style="fill:#a99856;fill-opacity:1;stroke:none"
         d="m -96.022483,590.69025 15.344293,8.85903 0,-17.71806 -15.344293,-8.85904 z"
         id="path3945"
         inkscape:connector-curvature="0"
         sodipodi:nodetypes="ccccc" />
      <path
         style="fill:#695e36;fill-opacity:1;stroke:none"
         d="m -80.67819,581.83122 15.3443,-8.85904 0,17.71807 -15.3443,8.85903 z"
         id="path3947"
         inkscape:connector-curvature="0"
         sodipodi:nodetypes="ccccc" />
      <path
         inkscape:connector-curvature="0"
         id="path3949"
         d="m -65.33389,590.69025 15.34429,8.85903 0,-17.71806 -15.34429,-8.85904 z"
         style="fill:#a99856;fill-opacity:1;stroke:none"
         sodipodi:nodetypes="ccccc" />
      <path
         inkscape:connector-curvature="0"
         id="path3951"
         d="m -49.9896,581.83122 15.3443,-8.85904 0,17.71807 -15.3443,8.85903 z"
         style="fill:#695e36;fill-opacity:1;stroke:none"
         sodipodi:nodetypes="ccccc" />
      <path
         sodipodi:nodetypes="ccccc"
         style="fill:#a99856;fill-opacity:1;stroke:none"
         d="m -142.0527,564.11399 15.34429,8.85903 0,-17.71806 -15.34429,-8.85904 z"
         id="path3953"
         inkscape:connector-curvature="0" />
      <path
         sodipodi:nodetypes="ccccc"
         style="fill:#695e36;fill-opacity:1;stroke:none"
         d="m -126.70841,555.25496 15.33751,-8.85987 0.007,17.7189 -15.35108,8.8582 z"
         id="path3955"
         inkscape:connector-curvature="0" />
      <path
         sodipodi:nodetypes="ccccc"
         inkscape:connector-curvature="0"
         id="path3957"
         d="m -111.36411,564.11399 15.344287,8.85903 -10e-4,-17.71733 -15.343287,-8.85977 z"
         style="fill:#a99856;fill-opacity:1;stroke:none" />
      <path
         sodipodi:nodetypes="ccccc"
         inkscape:connector-curvature="0"
         id="path3959"
         d="m -96.021143,555.25569 15.345623,-8.85977 0,17.71807 -15.344303,8.85903 z"
         style="fill:#695e36;fill-opacity:1;stroke:none" />
      <path
         sodipodi:nodetypes="ccccc"
         inkscape:connector-curvature="0"
         id="path3961"
         d="m -80.67552,564.11399 15.34429,8.85903 0,-17.71806 -15.34429,-8.85904 z"
         style="fill:#a99856;fill-opacity:1;stroke:none" />
      <path
         sodipodi:nodetypes="ccccc"
         inkscape:connector-curvature="0"
         id="path3963"
         d="m -65.33123,555.25496 15.3443,-8.85904 0,17.71807 -15.3443,8.85903 z"
         style="fill:#695e36;fill-opacity:1;stroke:none" />
      <path
         inkscape:connector-curvature="0"
         id="path3965"
         d="m -126.7084,537.53689 15.34429,8.85903 0,-17.71806 -15.34429,-8.85904 z"
         style="fill:#a99856;fill-opacity:1;stroke:none"
         sodipodi:nodetypes="ccccc" />
      <path
         inkscape:connector-curvature="0"
         id="path3967"
         d="m -111.36411,528.67786 15.344297,-8.85904 0,17.71807 -15.346967,8.8582 z"
         style="fill:#695e36;fill-opacity:1;stroke:none"
         sodipodi:nodetypes="ccccc" />
      <path
         style="fill:#a99856;fill-opacity:1;stroke:none"
         d="m -96.019813,537.53689 15.344293,8.85903 -10e-4,-17.71733 -15.343293,-8.85977 z"
         id="path3969"
         inkscape:connector-curvature="0"
         sodipodi:nodetypes="ccccc" />
      <path
         style="fill:#695e36;fill-opacity:1;stroke:none"
         d="m -80.67684,528.67859 15.34562,-8.85977 0,17.71807 -15.3443,8.85903 z"
         id="path3971"
         inkscape:connector-curvature="0"
         sodipodi:nodetypes="ccccc" />
      <path
         sodipodi:nodetypes="ccccc"
         style="fill:#a99856;fill-opacity:1;stroke:none"
         d="m -111.36411,510.95979 15.344287,8.85903 0,-17.71806 -15.344287,-8.85904 z"
         id="path3973"
         inkscape:connector-curvature="0" />
      <path
         sodipodi:nodetypes="ccccc"
         style="fill:#695e36;fill-opacity:1;stroke:none"
         d="m -96.019823,502.10076 15.337515,-8.85987 0.0068,17.7189 -15.351083,8.8582 z"
         id="path3975"
         inkscape:connector-curvature="0" />
    </g>
  </g>
</svg>
