<?xml version="1.0" encoding="UTF-8" standalone="no"?>
<!-- Created with Inkscape (http://www.inkscape.org/) -->

<svg
   xmlns:dc="http://purl.org/dc/elements/1.1/"
   xmlns:cc="http://creativecommons.org/ns#"
   xmlns:rdf="http://www.w3.org/1999/02/22-rdf-syntax-ns#"
   xmlns:svg="http://www.w3.org/2000/svg"
   xmlns="http://www.w3.org/2000/svg"
   xmlns:sodipodi="http://sodipodi.sourceforge.net/DTD/sodipodi-0.dtd"
   xmlns:inkscape="http://www.inkscape.org/namespaces/inkscape"
   width="601.44446"
   height="520.86609"
   id="svg2"
   version="1.1"
   inkscape:version="0.48.5 r10040"
   sodipodi:docname="blueBackground.svg">
  <defs
     id="defs4" />
  <sodipodi:namedview
     id="base"
     pagecolor="#ffffff"
     bordercolor="#666666"
     borderopacity="1.0"
     inkscape:pageopacity="0.0"
     inkscape:pageshadow="2"
     inkscape:zoom="0.125"
     inkscape:cx="618.43888"
     inkscape:cy="519.72561"
     inkscape:document-units="px"
     inkscape:current-layer="layer1"
     showgrid="true"
     inkscape:window-width="1366"
     inkscape:window-height="715"
     inkscape:window-x="-8"
     inkscape:window-y="-8"
     inkscape:window-maximized="1"
     showguides="true"
     inkscape:guide-bbox="true"
     fit-margin-top="0"
     fit-margin-left="0"
     fit-margin-right="0"
     fit-margin-bottom="0">
    <inkscape:grid
       units="px"
       empspacing="7"
       visible="true"
       enabled="true"
       snapvisiblegridlinesonly="false"
       type="axonomgrid"
       id="grid2985"
       originy="-279.92366px"
       originx="-79.776px" />
    <sodipodi:guide
       orientation="0,1"
       position="-663.61528,675.81205"
       id="guide4040" />
  </sodipodi:namedview>
  <metadata
     id="metadata7">
    <rdf:RDF>
      <cc:Work
         rdf:about="">
        <dc:format>image/svg+xml</dc:format>
        <dc:type
           rdf:resource="http://purl.org/dc/dcmitype/StillImage" />
        <dc:title />
      </cc:Work>
    </rdf:RDF>
  </metadata>
  <g
     inkscape:label="Livello 1"
     inkscape:groupmode="layer"
     id="layer1"
     transform="translate(-79.776,-251.77241)">
    <g
       id="g4255" />
    <g
       id="g4030"
       transform="translate(1518.9429,-983.27009)">
      <path
         sodipodi:nodetypes="ccccc"
         style="fill:#56a999;fill-opacity:1;stroke:none"
         d="m -1439.1669,1731.1055 42.9603,24.8031 0,-49.6063 -42.9603,-24.8031 z"
         id="path3777"
         inkscape:connector-curvature="0" />
      <path
         sodipodi:nodetypes="ccccc"
         style="fill:#314646;fill-opacity:1;stroke:none"
         d="m -1396.2066,1706.3023 42.9488,-24.8031 0,49.6063 -42.9603,24.8031 z"
         id="path3779"
         inkscape:connector-curvature="0" />
      <path
         sodipodi:nodetypes="ccccc"
         inkscape:connector-curvature="0"
         id="path3781"
         d="m -1353.2462,1731.1055 42.9603,24.8031 0,-49.6042 -42.9575,-24.8052 z"
         style="fill:#56a999;fill-opacity:1;stroke:none" />
      <path
         sodipodi:nodetypes="ccccc"
         inkscape:connector-curvature="0"
         id="path3783"
         d="m -1310.2974,1706.3028 42.9603,-24.8036 0,49.6063 -42.9607,24.8031 z"
         style="fill:#314646;fill-opacity:1;stroke:none" />
      <path
         sodipodi:nodetypes="ccccc"
         inkscape:connector-curvature="0"
         id="path3785"
         d="m -1267.3256,1731.1055 42.9603,24.8031 0,-49.6063 -42.9603,-24.8031 z"
         style="fill:#56a999;fill-opacity:1;stroke:none" />
      <path
         sodipodi:nodetypes="ccccc"
         inkscape:connector-curvature="0"
         id="path3787"
         d="m -1224.3653,1706.3023 42.9603,-24.8031 0,49.6063 -42.9603,24.8031 z"
         style="fill:#314646;fill-opacity:1;stroke:none" />
      <path
         sodipodi:nodetypes="ccccc"
         style="fill:#56a999;fill-opacity:1;stroke:none"
         d="m -1181.405,1731.1055 42.9603,24.8031 0,-49.6063 -42.9603,-24.8031 z"
         id="path3789"
         inkscape:connector-curvature="0" />
      <path
         sodipodi:nodetypes="ccccc"
         style="fill:#314646;fill-opacity:1;stroke:none"
         d="m -1138.4447,1706.3023 42.9604,-24.8031 0,49.6063 -42.9604,24.8031 z"
         id="path3791"
         inkscape:connector-curvature="0" />
      <path
         sodipodi:nodetypes="ccccc"
         style="fill:#314646;fill-opacity:1;stroke:none"
         d="m -837.72245,1731.1055 -42.96033,24.8031 0,-49.6063 42.96033,-24.8031 z"
         id="path3793"
         inkscape:connector-curvature="0" />
      <path
         sodipodi:nodetypes="ccccc"
         style="fill:#56a999;fill-opacity:1;stroke:none"
         d="m -880.68278,1706.3023 -42.9603,-24.8031 -1.4e-4,49.6063 42.96044,24.8031 z"
         id="path3795"
         inkscape:connector-curvature="0" />
      <path
         sodipodi:nodetypes="ccccc"
         inkscape:connector-curvature="0"
         id="path3797"
         d="m -923.64308,1731.1055 -42.96033,24.8031 -6e-5,-49.6063 42.96039,-24.8031 z"
         style="fill:#314646;fill-opacity:1;stroke:none" />
      <path
         sodipodi:nodetypes="ccccc"
         inkscape:connector-curvature="0"
         id="path3799"
         d="m -966.60341,1706.3023 -42.96029,-24.8031 0,49.6063 42.96029,24.8031 z"
         style="fill:#56a999;fill-opacity:1;stroke:none" />
      <path
         sodipodi:nodetypes="ccccc"
         inkscape:connector-curvature="0"
         id="path3801"
         d="m -1009.5637,1731.1055 -42.9603,24.8031 0,-49.6063 42.9603,-24.8031 z"
         style="fill:#314646;fill-opacity:1;stroke:none" />
      <path
         sodipodi:nodetypes="ccccc"
         inkscape:connector-curvature="0"
         id="path3803"
         d="m -1052.524,1706.3023 -42.9603,-24.8031 0,49.6063 42.9603,24.8031 z"
         style="fill:#56a999;fill-opacity:1;stroke:none" />
      <path
         inkscape:connector-curvature="0"
         id="path3805"
         d="m -1396.2065,1656.696 42.9603,24.8032 0,-49.6063 -42.9603,-24.8032 z"
         style="fill:#56a999;fill-opacity:1;stroke:none"
         sodipodi:nodetypes="ccccc" />
      <path
         inkscape:connector-curvature="0"
         id="path3807"
         d="m -1353.2462,1631.8929 42.9488,-24.8032 0.011,49.6063 -42.9716,24.8032 z"
         style="fill:#314646;fill-opacity:1;stroke:none"
         sodipodi:nodetypes="ccccc" />
      <path
         style="fill:#56a999;fill-opacity:1;stroke:none"
         d="m -1310.2859,1656.6958 42.9603,24.8034 0,-49.6043 -42.9575,-24.8052 z"
         id="path3809"
         inkscape:connector-curvature="0"
         sodipodi:nodetypes="ccccc" />
      <path
         style="fill:#314646;fill-opacity:1;stroke:none"
         d="m -1267.3293,1631.8949 42.964,-24.8052 0,49.6063 -42.9603,24.8032 z"
         id="path3811"
         inkscape:connector-curvature="0"
         sodipodi:nodetypes="ccccc" />
      <path
         style="fill:#56a999;fill-opacity:1;stroke:none"
         d="m -1224.3653,1656.696 42.9603,24.8032 0,-49.6063 -42.9603,-24.8032 z"
         id="path3813"
         inkscape:connector-curvature="0"
         sodipodi:nodetypes="ccccc" />
      <path
         style="fill:#314646;fill-opacity:1;stroke:none"
         d="m -1181.405,1631.8929 42.9604,-24.8032 0,49.6063 -42.9604,24.8032 z"
         id="path3815"
         inkscape:connector-curvature="0"
         sodipodi:nodetypes="ccccc" />
      <path
         inkscape:connector-curvature="0"
         id="path3817"
         d="m -1138.4446,1656.696 42.9603,24.8032 0,-49.6063 -42.9603,-24.8032 z"
         style="fill:#56a999;fill-opacity:1;stroke:none"
         sodipodi:nodetypes="ccccc" />
      <path
         inkscape:connector-curvature="0"
         id="path3819"
         d="m -1095.4843,1631.8929 42.9603,-24.8032 0,49.6063 -42.9603,24.8032 z"
         style="fill:#314646;fill-opacity:1;stroke:none"
         sodipodi:nodetypes="ccccc" />
      <path
         style="fill:#314646;fill-opacity:1;stroke:none"
         d="m -880.68275,1656.696 -42.96033,24.8032 -6e-5,-49.6063 42.96039,-24.8032 z"
         id="path3821"
         inkscape:connector-curvature="0"
         sodipodi:nodetypes="ccccc" />
      <path
         style="fill:#56a999;fill-opacity:1;stroke:none"
         d="m -923.64308,1631.8929 -42.9603,-24.8032 0,49.6063 42.9603,24.8032 z"
         id="path3823"
         inkscape:connector-curvature="0"
         sodipodi:nodetypes="ccccc" />
      <path
         style="fill:#314646;fill-opacity:1;stroke:none"
         d="m -966.60338,1656.696 -42.96032,24.8032 0,-49.6063 42.96032,-24.8032 z"
         id="path3825"
         inkscape:connector-curvature="0"
         sodipodi:nodetypes="ccccc" />
      <path
         style="fill:#56a999;fill-opacity:1;stroke:none"
         d="m -1009.5637,1631.8929 -42.9603,-24.8032 0,49.6063 42.9603,24.8032 z"
         id="path3827"
         inkscape:connector-curvature="0"
         sodipodi:nodetypes="ccccc" />
      <path
         sodipodi:nodetypes="ccccc"
         style="fill:#56a999;fill-opacity:1;stroke:none"
         d="m -1353.2388,1582.2889 42.9603,24.8032 0,-49.6063 -42.9603,-24.8032 z"
         id="path3829"
         inkscape:connector-curvature="0" />
      <path
         sodipodi:nodetypes="ccccc"
         style="fill:#314646;fill-opacity:1;stroke:none"
         d="m -1310.2785,1557.4858 42.9414,-24.8055 0.02,49.6086 -42.9794,24.8008 z"
         id="path3831"
         inkscape:connector-curvature="0" />
      <path
         sodipodi:nodetypes="ccccc"
         inkscape:connector-curvature="0"
         id="path3833"
         d="m -1267.3181,1582.2889 42.9603,24.8032 0,-49.6043 -42.9575,-24.8052 z"
         style="fill:#56a999;fill-opacity:1;stroke:none" />
      <path
         sodipodi:nodetypes="ccccc"
         inkscape:connector-curvature="0"
         id="path3835"
         d="m -1224.3615,1557.4878 42.964,-24.8052 0,49.6063 -42.9603,24.8032 z"
         style="fill:#314646;fill-opacity:1;stroke:none" />
      <path
         sodipodi:nodetypes="ccccc"
         inkscape:connector-curvature="0"
         id="path3837"
         d="m -1181.3975,1582.2889 42.9603,24.8032 0,-49.6063 -42.9603,-24.8032 z"
         style="fill:#56a999;fill-opacity:1;stroke:none" />
      <path
         sodipodi:nodetypes="ccccc"
         inkscape:connector-curvature="0"
         id="path3839"
         d="m -1138.4372,1557.4858 42.9603,-24.8032 0,49.6063 -42.9603,24.8032 z"
         style="fill:#314646;fill-opacity:1;stroke:none" />
      <path
         sodipodi:nodetypes="ccccc"
         style="fill:#56a999;fill-opacity:1;stroke:none"
         d="m -1095.4769,1582.2889 42.9603,24.8032 0,-49.6063 -42.9603,-24.8032 z"
         id="path3841"
         inkscape:connector-curvature="0" />
      <path
         sodipodi:nodetypes="ccccc"
         style="fill:#314646;fill-opacity:1;stroke:none"
         d="m -1052.5166,1557.4858 42.9604,-24.8032 0,49.6063 -42.9604,24.8032 z"
         id="path3843"
         inkscape:connector-curvature="0" />
      <path
         sodipodi:nodetypes="ccccc"
         inkscape:connector-curvature="0"
         id="path3845"
         d="m -923.63561,1582.2889 -42.96033,24.8032 0,-49.6063 42.96033,-24.8032 z"
         style="fill:#314646;fill-opacity:1;stroke:none" />
      <path
         sodipodi:nodetypes="ccccc"
         inkscape:connector-curvature="0"
         id="path3847"
         d="m -966.59594,1557.4858 -42.96026,-24.8032 0,49.6063 42.96026,24.8032 z"
         style="fill:#56a999;fill-opacity:1;stroke:none" />
      <path
         inkscape:connector-curvature="0"
         id="path3849"
         d="m -1310.2859,1507.8771 42.9603,24.8032 0,-49.6063 -42.9603,-24.8032 z"
         style="fill:#56a999;fill-opacity:1;stroke:none"
         sodipodi:nodetypes="ccccc" />
      <path
         inkscape:connector-curvature="0"
         id="path3851"
         d="m -1267.3371,1483.074 42.9603,-24.8032 0,49.6063 -42.9603,24.8032 z"
         style="fill:#314646;fill-opacity:1;stroke:none"
         sodipodi:nodetypes="ccccc" />
      <path
         style="fill:#56a999;fill-opacity:1;stroke:none"
         d="m -1224.3653,1507.8771 42.9603,24.8032 0,-49.6043 -42.9575,-24.8052 z"
         id="path3853"
         inkscape:connector-curvature="0"
         sodipodi:nodetypes="ccccc" />
      <path
         style="fill:#314646;fill-opacity:1;stroke:none"
         d="m -1181.4087,1483.076 42.9641,-24.8052 0,49.6063 -42.9604,24.8032 z"
         id="path3855"
         inkscape:connector-curvature="0"
         sodipodi:nodetypes="ccccc" />
      <path
         style="fill:#56a999;fill-opacity:1;stroke:none"
         d="m -1138.4446,1507.8771 42.9603,24.8032 0,-49.6063 -42.9603,-24.8032 z"
         id="path3857"
         inkscape:connector-curvature="0"
         sodipodi:nodetypes="ccccc" />
      <path
         style="fill:#314646;fill-opacity:1;stroke:none"
         d="m -1095.4843,1483.074 42.9603,-24.8032 0,49.6063 -42.9603,24.8032 z"
         id="path3862"
         inkscape:connector-curvature="0"
         sodipodi:nodetypes="ccccc" />
      <path
         inkscape:connector-curvature="0"
         id="path3877"
         d="m -1052.524,1507.8771 42.9603,24.8032 0,-49.6063 -42.9603,-24.8032 z"
         style="fill:#56a999;fill-opacity:1;stroke:none"
         sodipodi:nodetypes="ccccc" />
      <path
         inkscape:connector-curvature="0"
         id="path3888"
         d="m -1009.5637,1483.074 42.96032,-24.8032 0,49.6063 -42.96032,24.8032 z"
         style="fill:#314646;fill-opacity:1;stroke:none"
         sodipodi:nodetypes="ccccc" />
      <path
         sodipodi:nodetypes="ccccc"
         style="fill:#56a999;fill-opacity:1;stroke:none"
         d="m -1267.3181,1433.47 42.9603,24.8032 0,-49.6063 -42.9603,-24.8032 z"
         id="path3890"
         inkscape:connector-curvature="0" />
      <path
         sodipodi:nodetypes="ccccc"
         style="fill:#314646;fill-opacity:1;stroke:none"
         d="m -1224.3578,1408.6669 42.9413,-24.8055 0.02,49.6086 -42.9793,24.8008 z"
         id="path3892"
         inkscape:connector-curvature="0" />
      <path
         sodipodi:nodetypes="ccccc"
         inkscape:connector-curvature="0"
         id="path3896"
         d="m -1181.3975,1433.47 42.9603,24.8032 0,-49.6043 -42.9575,-24.8052 z"
         style="fill:#56a999;fill-opacity:1;stroke:none" />
      <path
         sodipodi:nodetypes="ccccc"
         inkscape:connector-curvature="0"
         id="path3898"
         d="m -1138.4409,1408.6689 42.964,-24.8052 0,49.6063 -42.9603,24.8032 z"
         style="fill:#314646;fill-opacity:1;stroke:none" />
      <path
         sodipodi:nodetypes="ccccc"
         inkscape:connector-curvature="0"
         id="path3902"
         d="m -1095.4769,1433.47 42.9603,24.8032 0,-49.6063 -42.9603,-24.8032 z"
         style="fill:#56a999;fill-opacity:1;stroke:none" />
      <path
         sodipodi:nodetypes="ccccc"
         inkscape:connector-curvature="0"
         id="path3904"
         d="m -1052.5166,1408.6669 42.9604,-24.8032 0,49.6063 -42.9604,24.8032 z"
         style="fill:#314646;fill-opacity:1;stroke:none" />
      <path
         inkscape:connector-curvature="0"
         id="path3906"
         d="m -1224.3578,1359.0606 42.9603,24.8031 0,-49.6063 -42.9603,-24.8031 z"
         style="fill:#56a999;fill-opacity:1;stroke:none"
         sodipodi:nodetypes="ccccc" />
      <path
         inkscape:connector-curvature="0"
         id="path3908"
         d="m -1181.3975,1334.2574 42.9603,-24.8031 0,49.6063 -42.9678,24.8008 z"
         style="fill:#314646;fill-opacity:1;stroke:none"
         sodipodi:nodetypes="ccccc" />
      <path
         style="fill:#56a999;fill-opacity:1;stroke:none"
         d="m -1138.4372,1359.0606 42.9603,24.8031 0,-49.6042 -42.9575,-24.8052 z"
         id="path3910"
         inkscape:connector-curvature="0"
         sodipodi:nodetypes="ccccc" />
      <path
         style="fill:#314646;fill-opacity:1;stroke:none"
         d="m -1095.4806,1334.2595 42.9641,-24.8052 0,49.6063 -42.9604,24.8031 z"
         id="path3912"
         inkscape:connector-curvature="0"
         sodipodi:nodetypes="ccccc" />
      <path
         sodipodi:nodetypes="ccccc"
         style="fill:#56a999;fill-opacity:1;stroke:none"
         d="m -1181.3975,1284.6511 42.9603,24.8032 0,-49.6063 -42.9603,-24.8032 z"
         id="path3914"
         inkscape:connector-curvature="0" />
      <path
         sodipodi:nodetypes="ccccc"
         style="fill:#314646;fill-opacity:1;stroke:none"
         d="m -1138.4372,1259.848 42.9413,-24.8055 0.02,49.6086 -42.9793,24.8008 z"
         id="path3916"
         inkscape:connector-curvature="0" />
    </g>
  </g>
</svg>
