<?xml version="1.0" encoding="UTF-8" standalone="no"?>
<!-- Created with Inkscape (http://www.inkscape.org/) -->

<svg
   xmlns:dc="http://purl.org/dc/elements/1.1/"
   xmlns:cc="http://creativecommons.org/ns#"
   xmlns:rdf="http://www.w3.org/1999/02/22-rdf-syntax-ns#"
   xmlns:svg="http://www.w3.org/2000/svg"
   xmlns="http://www.w3.org/2000/svg"
   xmlns:sodipodi="http://sodipodi.sourceforge.net/DTD/sodipodi-0.dtd"
   xmlns:inkscape="http://www.inkscape.org/namespaces/inkscape"
   width="85.91758"
   height="63.158421"
   id="svg2"
   version="1.1"
   inkscape:version="0.48.5 r10040"
   sodipodi:docname="CoilyFrontMove.svg">
  <defs
     id="defs4" />
  <sodipodi:namedview
     id="base"
     pagecolor="#ffffff"
     bordercolor="#666666"
     borderopacity="1.0"
     inkscape:pageopacity="0.0"
     inkscape:pageshadow="2"
     inkscape:zoom="0.088388348"
     inkscape:cx="-950.64909"
     inkscape:cy="1027.0216"
     inkscape:document-units="px"
     inkscape:current-layer="layer1"
     showgrid="true"
     inkscape:window-width="1366"
     inkscape:window-height="715"
     inkscape:window-x="-8"
     inkscape:window-y="-8"
     inkscape:window-maximized="1"
     showguides="true"
     inkscape:guide-bbox="true"
     fit-margin-top="0"
     fit-margin-left="0"
     fit-margin-right="0"
     fit-margin-bottom="0">
    <inkscape:grid
       units="px"
       empspacing="7"
       visible="true"
       enabled="true"
       snapvisiblegridlinesonly="false"
       type="axonomgrid"
       id="grid2985"
       originy="436.20519px"
       originx="2069.6849px" />
    <sodipodi:guide
       orientation="0,1"
       position="1485.8456,1391.9409"
       id="guide4040" />
  </sodipodi:namedview>
  <metadata
     id="metadata7">
    <rdf:RDF>
      <cc:Work
         rdf:about="">
        <dc:format>image/svg+xml</dc:format>
        <dc:type
           rdf:resource="http://purl.org/dc/dcmitype/StillImage" />
        <dc:title />
      </cc:Work>
    </rdf:RDF>
  </metadata>
  <g
     inkscape:label="Livello 1"
     inkscape:groupmode="layer"
     id="layer1"
     transform="translate(2069.6849,-1425.6091)">
    <g
       id="g4255" />
    <g
       id="g6829"
       transform="matrix(1.8431931,0,0,1.8431931,-90.622925,-625.82476)">
      <g
         id="g6958">
        <g
           id="g6208"
           transform="matrix(1.5189717,0,0,1.5189717,-331.59551,117.89094)">
          <g
             style="stroke:#ffffff"
             transform="matrix(1.1597325,0,0,0.66756428,144.34747,235.55007)"
             id="g6210">
            <path
               sodipodi:nodetypes="csssscc"
               inkscape:connector-curvature="0"
               id="path6212"
               d="m -532.03303,634.38251 c -4.32579,0.44221 -6.8074,2.06367 -7.13186,5.13014 -0.61937,5.85361 12.28758,10.33996 11.99984,4.48366 -0.24737,-5.03473 -13.30979,-0.13867 -11.77894,6.21399 1.10453,4.58353 11.63329,7.50615 11.51544,2.55276 -0.10109,-4.24866 -12.60256,0.31884 -9.60427,5.59981 0.97967,2.17283 2.93623,3.82039 8.35854,1.47549"
               style="fill:none;stroke:#ffffff;stroke-width:2.5999999;stroke-linecap:round;stroke-linejoin:round;stroke-miterlimit:4;stroke-opacity:1;stroke-dasharray:none" />
            <path
               transform="matrix(0.85702557,0.38541441,-0.2778177,1.1889451,30.512266,671.4258)"
               d="m -595.73749,163.52896 c 0,1.22039 -1.78078,2.20971 -3.97748,2.20971 -2.19669,0 -3.97747,-0.98932 -3.97747,-2.20971 0,-1.22039 1.78078,-2.20971 3.97747,-2.20971 2.1967,0 3.97748,0.98932 3.97748,2.20971 z"
               sodipodi:ry="2.2097087"
               sodipodi:rx="3.9774756"
               sodipodi:cy="163.52896"
               sodipodi:cx="-599.71497"
               id="path6214"
               style="color:#000000;fill:#b900b9;fill-opacity:1;fill-rule:nonzero;stroke:#ffffff;stroke-width:1.60000002;marker:none;visibility:visible;display:inline;overflow:visible;enable-background:accumulate"
               sodipodi:type="arc" />
            <path
               sodipodi:nodetypes="cc"
               inkscape:connector-curvature="0"
               id="path6216"
               d="m -533.375,633.79968 c -5.19618,0.66106 -9.02937,5.24446 -4.8125,10.25"
               style="fill:none;stroke:#ffffff;stroke-width:1px;stroke-linecap:round;stroke-linejoin:round;stroke-opacity:1" />
            <path
               sodipodi:nodetypes="ccc"
               inkscape:connector-curvature="0"
               id="path6218"
               d="m -528.70379,660.10985 c 0.46086,1.4988 3.00804,-2.22519 3.00804,-2.22519 -0.28726,0 -3.24369,1.18031 -3.24369,1.18031"
               style="fill:#770066;fill-opacity:1;stroke:#ffffff;stroke-width:1px;stroke-linecap:butt;stroke-linejoin:miter;stroke-opacity:1" />
          </g>
          <g
             id="g6220"
             transform="matrix(1.1597325,0,0,0.66756428,144.34747,235.13285)">
            <path
               style="fill:none;stroke:#b900b9;stroke-width:2.5999999;stroke-linecap:round;stroke-linejoin:round;stroke-miterlimit:4;stroke-opacity:1;stroke-dasharray:none"
               d="m -532.03303,634.38251 c -4.32579,0.44221 -6.8074,2.06367 -7.13186,5.13014 -0.61937,5.85361 12.28758,10.33996 11.99984,4.48366 -0.24737,-5.03473 -13.30979,-0.13867 -11.77894,6.21399 1.10453,4.58353 11.63329,7.50615 11.51544,2.55276 -0.10109,-4.24866 -12.60256,0.31884 -9.60427,5.59981 0.97967,2.17283 2.93623,3.82039 8.35854,1.47549"
               id="path6222"
               inkscape:connector-curvature="0"
               sodipodi:nodetypes="csssscc" />
            <path
               sodipodi:type="arc"
               style="color:#000000;fill:#b900b9;fill-opacity:1;fill-rule:nonzero;stroke:none;stroke-width:1.60000002;marker:none;visibility:visible;display:inline;overflow:visible;enable-background:accumulate"
               id="path6224"
               sodipodi:cx="-599.71497"
               sodipodi:cy="163.52896"
               sodipodi:rx="3.9774756"
               sodipodi:ry="2.2097087"
               d="m -595.73749,163.52896 c 0,1.22039 -1.78078,2.20971 -3.97748,2.20971 -2.19669,0 -3.97747,-0.98932 -3.97747,-2.20971 0,-1.22039 1.78078,-2.20971 3.97747,-2.20971 2.1967,0 3.97748,0.98932 3.97748,2.20971 z"
               transform="matrix(1.0496672,0.44386989,-0.34026538,1.3692714,156.24908,676.67132)" />
            <path
               style="fill:none;stroke:#770066;stroke-width:1px;stroke-linecap:round;stroke-linejoin:round;stroke-opacity:1"
               d="m -533.375,633.33156 c -5.19618,0.66106 -9.02937,5.71258 -4.8125,10.71812"
               id="path6226"
               inkscape:connector-curvature="0"
               sodipodi:nodetypes="cc" />
            <path
               style="fill:none;stroke:#770066;stroke-width:1px;stroke-linecap:square;stroke-linejoin:round;stroke-opacity:1"
               d="m -535.83191,645.90869 c 3.90515,2.81676 9.86966,2.53774 9.45691,-1.79651 -0.54851,-5.75988 -8.67152,-3.13152 -11.75,0.5 -3.09167,3.64708 -1.65667,7.05954 0.5366,8.90533"
               id="path6228"
               inkscape:connector-curvature="0"
               sodipodi:nodetypes="cssc" />
            <path
               sodipodi:nodetypes="cccc"
               inkscape:connector-curvature="0"
               id="path6230"
               d="m -535.43114,655.09687 c 3.3392,1.53593 8.18412,1.95563 8.72154,-1.65388 0.50047,-4.697 -6.00078,-4.97405 -10.875,0.94129 -1.88575,4.45838 2.05041,10.36304 9.18862,6.27209"
               style="fill:none;stroke:#770066;stroke-width:1px;stroke-linecap:square;stroke-linejoin:round;stroke-opacity:1" />
            <path
               style="fill:#770066;fill-opacity:1;stroke:#770066;stroke-width:1px;stroke-linecap:butt;stroke-linejoin:miter;stroke-opacity:1"
               d="m -528.77923,660.14221 c 1.08586,1.26443 2.81184,-1.62968 2.81184,-1.62968 -0.28726,0 -2.97205,0.27157 -2.97205,0.27157"
               id="path6232"
               inkscape:connector-curvature="0"
               sodipodi:nodetypes="ccc" />
          </g>
          <path
             transform="matrix(-0.46426075,0,0,0.79147363,-769.81261,530.2126)"
             d="m -642.5,159.81531 c 0,0.25888 -0.46171,0.46875 -1.03125,0.46875 -0.56954,0 -1.03125,-0.20987 -1.03125,-0.46875 0,-0.25889 0.46171,-0.46875 1.03125,-0.46875 0.56954,0 1.03125,0.20986 1.03125,0.46875 z"
             sodipodi:ry="0.46875"
             sodipodi:rx="1.03125"
             sodipodi:cy="159.81531"
             sodipodi:cx="-643.53125"
             id="path6234"
             style="color:#000000;fill:#ffffff;fill-opacity:1;fill-rule:nonzero;stroke:#ffffff;stroke-width:2.5999999;stroke-linecap:round;stroke-linejoin:round;stroke-miterlimit:4;stroke-opacity:1;stroke-dasharray:none;stroke-dashoffset:0;marker:none;visibility:visible;display:inline;overflow:visible;enable-background:accumulate"
             sodipodi:type="arc" />
          <path
             sodipodi:type="arc"
             style="color:#000000;fill:#ffffff;fill-opacity:1;fill-rule:nonzero;stroke:#ffffff;stroke-width:2.5999999;stroke-linecap:round;stroke-linejoin:round;stroke-miterlimit:4;stroke-opacity:1;stroke-dasharray:none;stroke-dashoffset:0;marker:none;visibility:visible;display:inline;overflow:visible;enable-background:accumulate"
             id="path6236"
             sodipodi:cx="-643.53125"
             sodipodi:cy="159.81531"
             sodipodi:rx="1.03125"
             sodipodi:ry="0.46875"
             d="m -642.5,159.81531 c 0,0.25888 -0.46171,0.46875 -1.03125,0.46875 -0.56954,0 -1.03125,-0.20987 -1.03125,-0.46875 0,-0.25889 0.46171,-0.46875 1.03125,-0.46875 0.56954,0 1.03125,0.20986 1.03125,0.46875 z"
             transform="matrix(-0.42417662,0,0,0.72313804,-741.93909,540.82749)" />
          <path
             sodipodi:type="arc"
             style="color:#000000;fill:#000000;fill-opacity:1;fill-rule:nonzero;stroke:none;stroke-width:2.5999999;marker:none;visibility:visible;display:inline;overflow:visible;enable-background:accumulate"
             id="path6238"
             sodipodi:cx="-643.53125"
             sodipodi:cy="159.81531"
             sodipodi:rx="1.03125"
             sodipodi:ry="0.46875"
             d="m -642.5,159.81531 c 0,0.25888 -0.46171,0.46875 -1.03125,0.46875 -0.56954,0 -1.03125,-0.20987 -1.03125,-0.46875 0,-0.25889 0.46171,-0.46875 1.03125,-0.46875 0.56954,0 1.03125,0.20986 1.03125,0.46875 z"
             transform="matrix(-0.46426075,0,0,0.93751526,-769.81261,506.80446)" />
          <path
             transform="matrix(-0.42417662,0,0,0.85657048,-741.93909,519.37799)"
             d="m -642.5,159.81531 c 0,0.25888 -0.46171,0.46875 -1.03125,0.46875 -0.56954,0 -1.03125,-0.20987 -1.03125,-0.46875 0,-0.25889 0.46171,-0.46875 1.03125,-0.46875 0.56954,0 1.03125,0.20986 1.03125,0.46875 z"
             sodipodi:ry="0.46875"
             sodipodi:rx="1.03125"
             sodipodi:cy="159.81531"
             sodipodi:cx="-643.53125"
             id="path6240"
             style="color:#000000;fill:#000000;fill-opacity:1;fill-rule:nonzero;stroke:none;stroke-width:2.5999999;marker:none;visibility:visible;display:inline;overflow:visible;enable-background:accumulate"
             sodipodi:type="arc" />
        </g>
        <path
           sodipodi:type="inkscape:offset"
           inkscape:radius="0"
           inkscape:original="M 107.40625 565.15625 L 92.0625 574.03125 L 107.40625 582.875 L 122.75 574.03125 L 107.40625 565.15625 z "
           style="fill:#ff6666;fill-opacity:0;stroke:none"
           id="path6350-45-5"
           d="m 107.40625,565.15625 -15.34375,8.875 15.34375,8.84375 15.34375,-8.84375 -15.34375,-8.875 z"
           transform="matrix(-1.5189717,0,0,0.61566344,-887.26008,777.09705)" />
      </g>
    </g>
  </g>
</svg>
