<?xml version="1.0" encoding="UTF-8" standalone="no"?>
<!-- Created with Inkscape (http://www.inkscape.org/) -->

<svg
   xmlns:dc="http://purl.org/dc/elements/1.1/"
   xmlns:cc="http://creativecommons.org/ns#"
   xmlns:rdf="http://www.w3.org/1999/02/22-rdf-syntax-ns#"
   xmlns:svg="http://www.w3.org/2000/svg"
   xmlns="http://www.w3.org/2000/svg"
   xmlns:sodipodi="http://sodipodi.sourceforge.net/DTD/sodipodi-0.dtd"
   xmlns:inkscape="http://www.inkscape.org/namespaces/inkscape"
   width="85.91758"
   height="91.730171"
   id="svg2"
   version="1.1"
   inkscape:version="0.92.3 (2405546, 2018-03-11)"
   sodipodi:docname="CoilyFrontStand.svg">
  <defs
     id="defs4" />
  <sodipodi:namedview
     id="base"
     pagecolor="#ffffff"
     bordercolor="#666666"
     borderopacity="1.0"
     inkscape:pageopacity="0.0"
     inkscape:pageshadow="2"
     inkscape:zoom="4"
     inkscape:cx="8.2683171"
     inkscape:cy="46.436928"
     inkscape:document-units="px"
     inkscape:current-layer="g6140"
     showgrid="true"
     inkscape:window-width="1280"
     inkscape:window-height="747"
     inkscape:window-x="-8"
     inkscape:window-y="22"
     inkscape:window-maximized="1"
     showguides="true"
     inkscape:guide-bbox="true"
     fit-margin-top="0"
     fit-margin-left="0"
     fit-margin-right="0"
     fit-margin-bottom="0">
    <inkscape:grid
       units="px"
       empspacing="7"
       visible="true"
       enabled="false"
       snapvisiblegridlinesonly="false"
       type="axonomgrid"
       id="grid2985"
       originy="335.06325px"
       originx="2057.7772px" />
    <sodipodi:guide
       orientation="0,1"
       position="1473.9379,1290.799"
       id="guide4040"
       inkscape:locked="false" />
  </sodipodi:namedview>
  <metadata
     id="metadata7">
    <rdf:RDF>
      <cc:Work
         rdf:about="">
        <dc:format>image/svg+xml</dc:format>
        <dc:type
           rdf:resource="http://purl.org/dc/dcmitype/StillImage" />
        <dc:title />
      </cc:Work>
    </rdf:RDF>
  </metadata>
  <g
     inkscape:label="Livello 1"
     inkscape:groupmode="layer"
     id="layer1"
     transform="translate(2057.7772,-1295.8954)">
    <g
       id="g4255" />
    <g
       id="g6849"
       transform="matrix(1.8431931,0,0,1.8431931,-82.137644,-652.69481)">
      <g
         id="g6978">
        <g
           id="g6140"
           transform="matrix(1.5189717,0,0,1.5189717,-331.72579,117.94639)">
          <g
             id="g6142"
             transform="translate(60.618943,-11.179874)"
             style="stroke:#ffffff">
            <path
               style="fill:none;stroke:#ffffff;stroke-width:2.5999999;stroke-linecap:round;stroke-linejoin:round;stroke-miterlimit:4;stroke-opacity:1;stroke-dasharray:none"
               d="m -532.03303,634.38251 c -4.32579,0.44221 -6.8074,2.06367 -7.13186,5.13014 -0.61937,5.85361 12.28758,10.33996 11.99984,4.48366 -0.24737,-5.03473 -13.30979,-0.13867 -11.77894,6.21399 1.10453,4.58353 11.63329,7.50615 11.51544,2.55276 -0.10109,-4.24866 -12.60256,0.31884 -9.60427,5.59981 0.97967,2.17283 2.93623,3.82039 8.35854,1.47549"
               id="path6144"
               inkscape:connector-curvature="0"
               sodipodi:nodetypes="csssscc" />
            <path
               sodipodi:type="arc"
               style="color:#000000;fill:#b900b9;fill-opacity:1;fill-rule:nonzero;stroke:#ffffff;stroke-width:1.60000002;marker:none;visibility:visible;display:inline;overflow:visible;enable-background:accumulate"
               id="path6146"
               sodipodi:cx="-599.71497"
               sodipodi:cy="163.52896"
               sodipodi:rx="3.9774756"
               sodipodi:ry="2.2097087"
               d="m -595.73749,163.52896 a 3.9774756,2.2097087 0 0 1 -3.97748,2.20971 3.9774756,2.2097087 0 0 1 -3.97747,-2.20971 3.9774756,2.2097087 0 0 1 3.97747,-2.20971 3.9774756,2.2097087 0 0 1 3.97748,2.20971 z"
               transform="matrix(0.85702557,0.38541441,-0.2778177,1.1889451,30.512266,671.4258)" />
            <path
               style="fill:none;stroke:#ffffff;stroke-width:1px;stroke-linecap:round;stroke-linejoin:round;stroke-opacity:1"
               d="m -533.375,633.79968 c -5.19618,0.66106 -9.02937,5.24446 -4.8125,10.25"
               id="path6148"
               inkscape:connector-curvature="0"
               sodipodi:nodetypes="cc" />
            <path
               style="fill:none;stroke:#ffffff;stroke-width:1px;stroke-linecap:square;stroke-linejoin:round;stroke-opacity:1"
               d="m -536.31694,646.65768 c 2.50397,1.59965 10.36173,1.78671 9.94194,-2.5455 -0.49462,-5.10451 -8.67152,-3.13152 -11.75,0.5 -3.09167,3.64708 -1.65667,7.05954 0.5366,8.90533"
               id="path6150"
               inkscape:connector-curvature="0"
               sodipodi:nodetypes="cssc" />
            <path
               style="fill:#770066;fill-opacity:1;stroke:#ffffff;stroke-width:1px;stroke-linecap:butt;stroke-linejoin:miter;stroke-opacity:1"
               d="m -528.70379,660.10985 c 0.46086,1.4988 3.00804,-2.22519 3.00804,-2.22519 -0.28726,0 -3.24369,1.18031 -3.24369,1.18031"
               id="path6152"
               inkscape:connector-curvature="0"
               sodipodi:nodetypes="ccc" />
          </g>
          <path
             style="fill:none;stroke:#b900b9;stroke-width:2.5999999;stroke-linecap:round;stroke-linejoin:round;stroke-miterlimit:4;stroke-opacity:1;stroke-dasharray:none"
             d="m -471.41409,622.57764 c -4.32579,0.44221 -6.8074,2.06367 -7.13186,5.13014 -0.61937,5.85361 12.28758,10.33996 11.99984,4.48366 -0.24737,-5.03473 -13.30979,-0.13867 -11.77894,6.21399 1.10453,4.58353 11.63329,7.50615 11.51544,2.55276 -0.10109,-4.24866 -12.60256,0.31884 -9.60427,5.59981 0.97967,2.17283 2.93623,3.82039 8.35854,1.47549"
             id="path6154"
             inkscape:connector-curvature="0"
             sodipodi:nodetypes="csssscc" />
          <path
             style="fill:none;stroke:#770066;stroke-width:1px;stroke-linecap:round;stroke-linejoin:round;stroke-opacity:1"
             d="m -472.75606,621.99481 c -5.19618,0.66106 -9.02937,5.24446 -4.8125,10.25"
             id="path6162"
             inkscape:connector-curvature="0"
             sodipodi:nodetypes="cc" />
          <path
             style="fill:none;stroke:#770066;stroke-width:1px;stroke-linecap:square;stroke-linejoin:round;stroke-opacity:1"
             d="m -475.698,634.85281 c 2.50397,1.59965 10.36173,1.78671 9.94194,-2.5455 -0.49462,-5.10451 -8.67152,-3.13152 -11.75,0.5 -3.09167,3.64708 -1.65667,7.05954 0.5366,8.90533"
             id="path6164"
             inkscape:connector-curvature="0"
             sodipodi:nodetypes="cssc" />
          <path
             sodipodi:nodetypes="cscc"
             inkscape:connector-curvature="0"
             id="path6166"
             d="m -474.38107,643.38562 c 0.77223,0.49694 7.58173,2.47804 8.29041,-1.7475 0.66214,-3.94801 -6.00078,-4.97405 -10.875,0.94129 -2.31688,4.64563 2.21209,9.8013 9.18862,6.27209"
             style="fill:none;stroke:#770066;stroke-width:1px;stroke-linecap:square;stroke-linejoin:round;stroke-opacity:1" />
          <path
             style="fill:#770066;fill-opacity:1;stroke:#770066;stroke-width:1px;stroke-linecap:butt;stroke-linejoin:miter;stroke-opacity:1"
             d="m -468.16029,648.33734 c 1.08586,1.26443 2.81184,-1.62968 2.81184,-1.62968 -0.28726,0 -2.97205,0.55244 -2.97205,0.55244"
             id="path6168"
             inkscape:connector-curvature="0"
             sodipodi:nodetypes="ccc" />
          <path
             style="fill:#770066;fill-opacity:1;stroke:none;stroke-width:0.62808746px;stroke-linecap:butt;stroke-linejoin:miter;stroke-opacity:1"
             d="m -468.96322,625.45869 0.52568,1.93479 0.81238,-1.61232 c 0,0 -1.72036,-0.32247 -1.33806,-0.32247 z"
             id="path846"
             inkscape:connector-curvature="0" />
          <path
             style="fill:#770066;fill-opacity:1;stroke:none;stroke-width:0.65890044px;stroke-linecap:butt;stroke-linejoin:miter;stroke-opacity:1"
             d="m -465.72693,625.53397 0.57848,1.54782 0.57853,-2.06376 z"
             id="path848"
             inkscape:connector-curvature="0" />
          <path
             sodipodi:type="arc"
             style="color:#000000;fill:#b900b9;fill-opacity:1;fill-rule:nonzero;stroke:none;stroke-width:1.60000002;marker:none;visibility:visible;display:inline;overflow:visible;enable-background:accumulate"
             id="path6156"
             sodipodi:cx="-599.71497"
             sodipodi:cy="163.52896"
             sodipodi:rx="3.9774756"
             sodipodi:ry="2.2097087"
             d="m -595.73749,163.52896 a 3.9774756,2.2097087 0 0 1 -3.97748,2.20971 3.9774756,2.2097087 0 0 1 -3.97747,-2.20971 3.9774756,2.2097087 0 0 1 3.97747,-2.20971 3.9774756,2.2097087 0 0 1 3.97748,2.20971 z"
             transform="matrix(1.0496672,0.44386989,-0.34026538,1.3692714,216.86802,664.86645)" />
          <ellipse
             transform="scale(-1,1)"
             id="path6234"
             style="color:#000000;display:inline;overflow:visible;visibility:visible;fill:#ffffff;fill-opacity:1;fill-rule:nonzero;stroke:#ffffff;stroke-width:1.81712925;stroke-linecap:round;stroke-linejoin:round;stroke-miterlimit:4;stroke-dasharray:none;stroke-dashoffset:0;stroke-opacity:1;marker:none;enable-background:accumulate"
             cx="469.5918"
             cy="620.49854"
             rx="0.55884492"
             ry="0.42251182" />
          <ellipse
             style="color:#000000;display:inline;overflow:visible;visibility:visible;fill:#ffffff;fill-opacity:1;fill-rule:nonzero;stroke:#ffffff;stroke-width:1.66023886;stroke-linecap:round;stroke-linejoin:round;stroke-miterlimit:4;stroke-dasharray:none;stroke-dashoffset:0;stroke-opacity:1;marker:none;enable-background:accumulate"
             id="path6236"
             transform="scale(-1,1)"
             cx="467.16608"
             cy="620.14984"
             rx="0.51059443"
             ry="0.38603234" />
          <ellipse
             style="color:#000000;display:inline;overflow:visible;visibility:visible;fill:#000000;fill-opacity:1;fill-rule:nonzero;stroke:none;stroke-width:2.21249366;marker:none;enable-background:accumulate"
             id="path6238"
             transform="scale(-1,1)"
             cx="469.35852"
             cy="620.46674"
             rx="0.51673579"
             ry="0.67741394" />
          <ellipse
             transform="scale(-1,1)"
             id="path6240"
             style="color:#000000;display:inline;overflow:visible;visibility:visible;fill:#000000;fill-opacity:1;fill-rule:nonzero;stroke:none;stroke-width:2.02146769;marker:none;enable-background:accumulate"
             cx="467.0426"
             cy="620.17529"
             rx="0.47212103"
             ry="0.61892623" />
          <path
             style="fill:none;stroke:#770066;stroke-width:0.5505718px;stroke-linecap:butt;stroke-linejoin:miter;stroke-opacity:1"
             d="m -470.46018,618.79566 c 0.14597,0.0731 2.09256,0.75429 2.09256,0.75429 l 1.09495,-1.02195"
             id="path837"
             inkscape:connector-curvature="0"
             sodipodi:nodetypes="ccc" />
          <ellipse
             style="color:#000000;display:inline;overflow:visible;visibility:visible;fill:#000000;fill-opacity:1;fill-rule:nonzero;stroke:none;stroke-width:1.61500633;marker:none;enable-background:accumulate"
             id="path6238-5"
             transform="scale(-1,1)"
             cx="466.51471"
             cy="624.96301"
             rx="0.40606505"
             ry="0.45931578" />
          <ellipse
             transform="scale(-1,1)"
             id="path6240-8"
             style="color:#000000;display:inline;overflow:visible;visibility:visible;fill:#000000;fill-opacity:1;fill-rule:nonzero;stroke:none;stroke-width:1.47556698;marker:none;enable-background:accumulate"
             cx="465.45154"
             cy="624.82837"
             rx="0.37100551"
             ry="0.41965857" />
        </g>
        <path
           sodipodi:type="inkscape:offset"
           inkscape:radius="0"
           inkscape:original="M 107.40625 565.15625 L 92.0625 574.03125 L 107.40625 582.875 L 122.75 574.03125 L 107.40625 565.15625 z "
           style="fill:#ff6666;fill-opacity:0;stroke:none"
           id="path6350-45"
           d="m 107.40625,565.15625 -15.34375,8.875 15.34375,8.84375 15.34375,-8.84375 -15.34375,-8.875 z"
           transform="matrix(-1.5189717,0,0,0.61566344,-885.40331,728.84215)" />
      </g>
    </g>
  </g>
</svg>
