<?xml version="1.0" encoding="UTF-8" standalone="no"?>
<!-- Created with Inkscape (http://www.inkscape.org/) -->

<svg
   xmlns:dc="http://purl.org/dc/elements/1.1/"
   xmlns:cc="http://creativecommons.org/ns#"
   xmlns:rdf="http://www.w3.org/1999/02/22-rdf-syntax-ns#"
   xmlns:svg="http://www.w3.org/2000/svg"
   xmlns="http://www.w3.org/2000/svg"
   xmlns:sodipodi="http://sodipodi.sourceforge.net/DTD/sodipodi-0.dtd"
   xmlns:inkscape="http://www.inkscape.org/namespaces/inkscape"
   width="85.91758"
   height="46.937576"
   id="svg2"
   version="1.1"
   inkscape:version="0.92.3 (2405546, 2018-03-11)"
   sodipodi:docname="QbertFrontStand.svg">
  <defs
     id="defs4" />
  <sodipodi:namedview
     id="base"
     pagecolor="#ffffff"
     bordercolor="#666666"
     borderopacity="1.0"
     inkscape:pageopacity="0.0"
     inkscape:pageshadow="2"
     inkscape:zoom="16"
     inkscape:cx="39.00125"
     inkscape:cy="34.816699"
     inkscape:document-units="px"
     inkscape:current-layer="g6054"
     showgrid="true"
     inkscape:window-width="1280"
     inkscape:window-height="747"
     inkscape:window-x="-8"
     inkscape:window-y="22"
     inkscape:window-maximized="1"
     showguides="true"
     inkscape:guide-bbox="true"
     fit-margin-top="0"
     fit-margin-left="0"
     fit-margin-right="0"
     fit-margin-bottom="0">
    <inkscape:grid
       units="px"
       empspacing="7"
       visible="true"
       enabled="true"
       snapvisiblegridlinesonly="false"
       type="axonomgrid"
       id="grid2985"
       originy="207.28482px"
       originx="1905.5714px" />
    <sodipodi:guide
       orientation="0,1"
       position="1321.7321,1163.0205"
       id="guide4040"
       inkscape:locked="false" />
  </sodipodi:namedview>
  <metadata
     id="metadata7">
    <rdf:RDF>
      <cc:Work
         rdf:about="">
        <dc:format>image/svg+xml</dc:format>
        <dc:type
           rdf:resource="http://purl.org/dc/dcmitype/StillImage" />
        <dc:title />
      </cc:Work>
    </rdf:RDF>
  </metadata>
  <g
     inkscape:label="Livello 1"
     inkscape:groupmode="layer"
     id="layer1"
     transform="translate(1905.5714,-1212.9095)">
    <g
       id="g6907"
       transform="matrix(-1.8431931,0,0,1.8431931,-3634.6022,-666.83695)"
       inkscape:export-filename="C:\Users\Lomb\Google Drive\Università\Secondo anno\Programmazione ad oggetti\Progetto\QbertFrontStanding.png"
       inkscape:export-xdpi="90"
       inkscape:export-ydpi="90">
      <g
         id="g6998">
        <g
           id="g6048"
           transform="matrix(1.5189717,0,0,1.5189717,-279.75344,117.94639)">
          <g
             transform="translate(138.23926,493.672)"
             id="g6050"
             style="fill:#ffffff;stroke:#ffffff">
            <path
               sodipodi:type="arc"
               style="color:#000000;fill:#ffffff;fill-opacity:1;fill-rule:nonzero;stroke:#ffffff;stroke-width:1.60000002;stroke-linecap:round;stroke-linejoin:round;stroke-miterlimit:4;stroke-opacity:1;stroke-dasharray:none;stroke-dashoffset:0;marker:none;visibility:visible;display:inline;overflow:visible;enable-background:accumulate"
               id="path6052"
               sodipodi:cx="-592.45447"
               sodipodi:cy="108.56404"
               sodipodi:rx="0.34723994"
               sodipodi:ry="0.37880722"
               d="m -592.10723,108.56404 a 0.34723994,0.37880722 0 0 1 -0.34724,0.37881 0.34723994,0.37880722 0 0 1 -0.34724,-0.37881 0.34723994,0.37880722 0 0 1 0.34724,-0.37881 0.34723994,0.37880722 0 0 1 0.34724,0.37881 z"
               transform="matrix(1.0825475,0,0,1.0825475,49.505419,-8.3013844)" />
          </g>
          <g
             id="g6054"
             transform="translate(137.53215,493.672)">
            <path
               sodipodi:nodetypes="ccc"
               inkscape:connector-curvature="0"
               id="path6056"
               d="m -583.18879,110.73576 c 0.11005,1.55109 0.0454,4.49588 0.0454,4.49588 l -2.56266,0.92543"
               style="fill:none;stroke:#ef5600;stroke-width:1.29999995;stroke-linecap:round;stroke-linejoin:round;stroke-miterlimit:4;stroke-opacity:1;stroke-dasharray:none" />
            <path
               sodipodi:nodetypes="ccc"
               inkscape:connector-curvature="0"
               id="path6058"
               d="m -586.62207,110.09859 -0.024,4.82162 -3.01413,1.23686"
               style="fill:none;stroke:#ef5600;stroke-width:1.29999995;stroke-linecap:round;stroke-linejoin:round;stroke-miterlimit:4;stroke-opacity:1;stroke-dasharray:none" />
            <path
               sodipodi:nodetypes="cc"
               inkscape:connector-curvature="0"
               id="path6060"
               d="m -587.19088,106.777 -4.44296,2.39215"
               style="fill:#ef5600;fill-opacity:1;stroke:#ef5600;stroke-width:3.5;stroke-linecap:round;stroke-linejoin:miter;stroke-miterlimit:4;stroke-opacity:1;stroke-dasharray:none" />
            <path
               transform="matrix(-1,0,0,1,-1187.3651,-28.358462)"
               d="m -596.24997,134.1479 a 5.9821429,5.7142859 0 0 1 -5.98215,5.71429 5.9821429,5.7142859 0 0 1 -5.98214,-5.71429 5.9821429,5.7142859 0 0 1 5.98214,-5.71428 5.9821429,5.7142859 0 0 1 5.98215,5.71428 z"
               sodipodi:ry="5.7142859"
               sodipodi:rx="5.9821429"
               sodipodi:cy="134.1479"
               sodipodi:cx="-602.23212"
               id="path6062"
               style="color:#000000;fill:#ef5600;fill-opacity:1;fill-rule:nonzero;stroke:none;stroke-width:8;marker:none;visibility:visible;display:inline;overflow:visible;enable-background:accumulate"
               sodipodi:type="arc" />
            <path
               transform="matrix(-1,0,0,1,-1204.507,-30.178307)"
               d="m -618.33962,133.75471 a 1.3889598,1.767767 0 0 1 -1.38896,1.76777 1.3889598,1.767767 0 0 1 -1.38896,-1.76777 1.3889598,1.767767 0 0 1 1.38896,-1.76776 1.3889598,1.767767 0 0 1 1.38896,1.76776 z"
               sodipodi:ry="1.767767"
               sodipodi:rx="1.3889598"
               sodipodi:cy="133.75471"
               sodipodi:cx="-619.72858"
               id="path6064"
               style="color:#000000;fill:#ffffff;fill-opacity:1;fill-rule:nonzero;stroke:none;stroke-width:3.5;marker:none;visibility:visible;display:inline;overflow:visible;enable-background:accumulate"
               sodipodi:type="arc" />
            <path
               transform="matrix(-1.4210526,0,0,1.4210526,-1466.0269,-87.406552)"
               d="m -619.1604,134.41763 a 0.31567267,0.59977806 0 0 1 -0.31567,0.59978 0.31567267,0.59977806 0 0 1 -0.31568,-0.59978 0.31567267,0.59977806 0 0 1 0.31568,-0.59977 0.31567267,0.59977806 0 0 1 0.31567,0.59977 z"
               sodipodi:ry="0.59977806"
               sodipodi:rx="0.31567267"
               sodipodi:cy="134.41763"
               sodipodi:cx="-619.47607"
               id="path6066"
               style="color:#000000;fill:#000000;fill-opacity:1;fill-rule:nonzero;stroke:none;stroke-width:3.5;marker:none;visibility:visible;display:inline;overflow:visible;enable-background:accumulate"
               sodipodi:type="arc" />
            <path
               sodipodi:type="arc"
               style="color:#000000;fill:#ffffff;fill-opacity:1;fill-rule:nonzero;stroke:none;stroke-width:3.5;marker:none;visibility:visible;display:inline;overflow:visible;enable-background:accumulate"
               id="path6068"
               sodipodi:cx="-619.72858"
               sodipodi:cy="133.75471"
               sodipodi:rx="1.3889598"
               sodipodi:ry="1.767767"
               d="m -618.33962,133.75471 a 1.3889598,1.767767 0 0 1 -1.38896,1.76777 1.3889598,1.767767 0 0 1 -1.38896,-1.76777 1.3889598,1.767767 0 0 1 1.38896,-1.76776 1.3889598,1.767767 0 0 1 1.38896,1.76776 z"
               transform="matrix(-1,0,0,1,-1204.507,-30.178307)" />
            <ellipse
               style="color:#000000;display:inline;overflow:visible;visibility:visible;fill:#000000;fill-opacity:1;fill-rule:nonzero;stroke:none;stroke-width:4.49468136;marker:none;enable-background:accumulate"
               id="path6070"
               transform="scale(-1,1)"
               cx="585.27692"
               cy="103.541"
               rx="0.44858748"
               ry="0.69605267" />
            <path
               sodipodi:type="arc"
               style="color:#000000;fill:#ffffff;fill-opacity:1;fill-rule:nonzero;stroke:none;stroke-width:3.5;marker:none;visibility:visible;display:inline;overflow:visible;enable-background:accumulate"
               id="path6072"
               sodipodi:cx="-619.72858"
               sodipodi:cy="133.75471"
               sodipodi:rx="1.3889598"
               sodipodi:ry="1.767767"
               d="m -618.33962,133.75471 a 1.3889598,1.767767 0 0 1 -1.38896,1.76777 1.3889598,1.767767 0 0 1 -1.38896,-1.76777 1.3889598,1.767767 0 0 1 1.38896,-1.76776 1.3889598,1.767767 0 0 1 1.38896,1.76776 z"
               transform="matrix(-1,0,0,1,-1208.1057,-30.178307)" />
            <path
               sodipodi:type="arc"
               style="color:#000000;fill:#000000;fill-opacity:1;fill-rule:nonzero;stroke:none;stroke-width:3.5;marker:none;visibility:visible;display:inline;overflow:visible;enable-background:accumulate"
               id="path6074"
               sodipodi:cx="-619.47607"
               sodipodi:cy="134.41763"
               sodipodi:rx="0.31567267"
               sodipodi:ry="0.59977806"
               d="m -619.1604,134.41763 a 0.31567267,0.59977806 0 0 1 -0.31567,0.59978 0.31567267,0.59977806 0 0 1 -0.31568,-0.59978 0.31567267,0.59977806 0 0 1 0.31568,-0.59977 0.31567267,0.59977806 0 0 1 0.31567,0.59977 z"
               transform="matrix(-1.4210526,0,0,1.4210526,-1469.6256,-87.406552)" />
            <path
               transform="matrix(-1,0,0,1,-1208.1057,-30.178307)"
               d="m -618.33962,133.75471 a 1.3889598,1.767767 0 0 1 -1.38896,1.76777 1.3889598,1.767767 0 0 1 -1.38896,-1.76777 1.3889598,1.767767 0 0 1 1.38896,-1.76776 1.3889598,1.767767 0 0 1 1.38896,1.76776 z"
               sodipodi:ry="1.767767"
               sodipodi:rx="1.3889598"
               sodipodi:cy="133.75471"
               sodipodi:cx="-619.72858"
               id="path6076"
               style="color:#000000;fill:#ffffff;fill-opacity:1;fill-rule:nonzero;stroke:none;stroke-width:3.5;marker:none;visibility:visible;display:inline;overflow:visible;enable-background:accumulate"
               sodipodi:type="arc" />
            <ellipse
               transform="scale(-1,1)"
               id="path6078"
               style="color:#000000;display:inline;overflow:visible;visibility:visible;fill:#000000;fill-opacity:1;fill-rule:nonzero;stroke:none;stroke-width:4.49468136;marker:none;enable-background:accumulate"
               cx="588.93872"
               cy="103.541"
               rx="0.44858748"
               ry="0.69605267" />
            <path
               transform="matrix(1.0825475,0,0,1.0825475,49.505419,-8.3013844)"
               d="m -592.10723,108.56404 a 0.34723994,0.37880722 0 0 1 -0.32965,0.37832 0.34723994,0.37880722 0 0 1 -0.36305,-0.33999 0.34723994,0.37880722 0 0 1 0.29287,-0.41277 0.34723994,0.37880722 0 0 1 0.39272,0.29817 l -0.34013,0.0763 z"
               sodipodi:ry="0.37880722"
               sodipodi:rx="0.34723994"
               sodipodi:cy="108.56404"
               sodipodi:cx="-592.45447"
               id="path6080"
               style="color:#000000;display:inline;overflow:visible;visibility:visible;fill:#000000;fill-opacity:1;fill-rule:nonzero;stroke:#000000;stroke-width:1.60000002;stroke-linecap:round;stroke-linejoin:round;stroke-miterlimit:4;stroke-dasharray:none;stroke-dashoffset:0;stroke-opacity:1;marker:none;enable-background:accumulate"
               sodipodi:type="arc"
               sodipodi:start="0"
               sodipodi:end="6.0804668" />
            <path
               transform="matrix(-0.29576054,0.64590479,0.57253783,0.36490327,-846.50103,471.19598)"
               d="m -642.58927,129.88451 a 1.2946428,1.8080357 0 0 1 -1.29464,1.80803 1.2946428,1.8080357 0 0 1 -1.29464,-1.80803 1.2946428,1.8080357 0 0 1 1.29464,-1.80804 1.2946428,1.8080357 0 0 1 1.29464,1.80804 z"
               sodipodi:ry="1.8080357"
               sodipodi:rx="1.2946428"
               sodipodi:cy="129.88451"
               sodipodi:cx="-643.88391"
               id="path6082"
               style="color:#000000;fill:#ff7700;fill-opacity:1;fill-rule:nonzero;stroke:none;stroke-width:1.29999995;marker:none;visibility:visible;display:inline;overflow:visible;enable-background:accumulate"
               sodipodi:type="arc" />
          </g>
        </g>
        <path
           sodipodi:type="inkscape:offset"
           inkscape:radius="0"
           inkscape:original="M 107.40625 565.15625 L 92.0625 574.03125 L 107.40625 582.875 L 122.75 574.03125 L 107.40625 565.15625 z "
           style="fill:#ff6666;fill-opacity:0;stroke:none"
           id="path6350-45-1-1"
           d="m 107.40625,565.15625 -15.34375,8.875 15.34375,8.84375 15.34375,-8.84375 -15.34375,-8.875 z"
           transform="matrix(-1.5189717,0,0,0.61566344,-798.22244,679.13873)" />
      </g>
    </g>
  </g>
</svg>
