<?xml version="1.0" encoding="UTF-8" standalone="no"?>
<!-- Created with Inkscape (http://www.inkscape.org/) -->

<svg
   xmlns:dc="http://purl.org/dc/elements/1.1/"
   xmlns:cc="http://creativecommons.org/ns#"
   xmlns:rdf="http://www.w3.org/1999/02/22-rdf-syntax-ns#"
   xmlns:svg="http://www.w3.org/2000/svg"
   xmlns="http://www.w3.org/2000/svg"
   xmlns:sodipodi="http://sodipodi.sourceforge.net/DTD/sodipodi-0.dtd"
   xmlns:inkscape="http://www.inkscape.org/namespaces/inkscape"
   width="85.91758"
   height="40.730099"
   id="svg2"
   version="1.1"
   inkscape:version="0.48.5 r10040"
   sodipodi:docname="QbertFrontMove.svg">
  <defs
     id="defs4" />
  <sodipodi:namedview
     id="base"
     pagecolor="#ffffff"
     bordercolor="#666666"
     borderopacity="1.0"
     inkscape:pageopacity="0.0"
     inkscape:pageshadow="2"
     inkscape:zoom="1"
     inkscape:cx="181.38334"
     inkscape:cy="-86.114002"
     inkscape:document-units="px"
     inkscape:current-layer="layer1"
     showgrid="true"
     inkscape:window-width="1366"
     inkscape:window-height="715"
     inkscape:window-x="-8"
     inkscape:window-y="-8"
     inkscape:window-maximized="1"
     showguides="true"
     inkscape:guide-bbox="true"
     fit-margin-top="0"
     fit-margin-left="0"
     fit-margin-right="0"
     fit-margin-bottom="0">
    <inkscape:grid
       units="px"
       empspacing="7"
       visible="true"
       enabled="true"
       snapvisiblegridlinesonly="false"
       type="axonomgrid"
       id="grid2985"
       originy="202.90778px"
       originx="2062.0182px" />
    <sodipodi:guide
       orientation="0,1"
       position="1478.1789,1158.6435"
       id="guide4040" />
  </sodipodi:namedview>
  <metadata
     id="metadata7">
    <rdf:RDF>
      <cc:Work
         rdf:about="">
        <dc:format>image/svg+xml</dc:format>
        <dc:type
           rdf:resource="http://purl.org/dc/dcmitype/StillImage" />
        <dc:title />
      </cc:Work>
    </rdf:RDF>
  </metadata>
  <g
     inkscape:label="Livello 1"
     inkscape:groupmode="layer"
     id="layer1"
     transform="translate(2062.0182,-1214.74)">
    <g
       id="g6682"
       transform="matrix(-1.8431931,0,0,1.8431931,-3944.7511,-665.00644)"
       inkscape:export-filename="C:\Users\Lomb\Google Drive\Università\Secondo anno\Programmazione ad oggetti\Progetto\QbertFrontMoving.png"
       inkscape:export-xdpi="90"
       inkscape:export-ydpi="90">
      <g
         transform="matrix(1.5189717,0,0,1.5189717,-331.72579,117.94639)"
         id="g6104">
        <g
           transform="translate(117.55639,493.672)"
           id="g6106"
           style="fill:#ffffff;stroke:#ffffff">
          <path
             sodipodi:type="arc"
             style="color:#000000;fill:#ffffff;fill-opacity:1;fill-rule:nonzero;stroke:#ffffff;stroke-width:1.60000002;stroke-linecap:round;stroke-linejoin:round;stroke-miterlimit:4;stroke-opacity:1;stroke-dasharray:none;stroke-dashoffset:0;marker:none;visibility:visible;display:inline;overflow:visible;enable-background:accumulate"
             id="path6108"
             sodipodi:cx="-592.45447"
             sodipodi:cy="108.56404"
             sodipodi:rx="0.34723994"
             sodipodi:ry="0.37880722"
             d="m -592.10723,108.56404 c 0,0.20921 -0.15546,0.37881 -0.34724,0.37881 -0.19177,0 -0.34724,-0.1696 -0.34724,-0.37881 0,-0.20921 0.15547,-0.37881 0.34724,-0.37881 0.19178,0 0.34724,0.1696 0.34724,0.37881 z"
             transform="matrix(1.0825475,0,0,1.0825475,49.505419,-8.3013844)" />
        </g>
        <g
           id="g6110"
           transform="translate(116.84928,493.672)">
          <path
             sodipodi:nodetypes="ccc"
             inkscape:connector-curvature="0"
             id="path6112"
             d="m -583.18879,108.52605 c 0.11005,1.55109 0.0454,4.49588 0.0454,4.49588 l -2.56266,0.92543"
             style="fill:none;stroke:#ef5600;stroke-width:1.29999995;stroke-linecap:round;stroke-linejoin:round;stroke-miterlimit:4;stroke-opacity:1;stroke-dasharray:none" />
          <path
             sodipodi:nodetypes="ccc"
             inkscape:connector-curvature="0"
             id="path6114"
             d="m -586.62207,107.88888 -0.024,4.82162 -3.01413,1.23686"
             style="fill:none;stroke:#ef5600;stroke-width:1.29999995;stroke-linecap:round;stroke-linejoin:round;stroke-miterlimit:4;stroke-opacity:1;stroke-dasharray:none" />
          <path
             sodipodi:nodetypes="cc"
             inkscape:connector-curvature="0"
             id="path6116"
             d="m -587.19088,106.777 -4.44296,2.39215"
             style="fill:#ef5600;fill-opacity:1;stroke:#ef5600;stroke-width:3.5;stroke-linecap:round;stroke-linejoin:miter;stroke-miterlimit:4;stroke-opacity:1;stroke-dasharray:none" />
          <path
             transform="matrix(-1,0,0,1,-1187.3651,-28.358462)"
             d="m -596.24997,134.1479 c 0,3.15592 -2.6783,5.71429 -5.98215,5.71429 -3.30384,0 -5.98214,-2.55837 -5.98214,-5.71429 0,-3.15591 2.6783,-5.71428 5.98214,-5.71428 3.30385,0 5.98215,2.55837 5.98215,5.71428 z"
             sodipodi:ry="5.7142859"
             sodipodi:rx="5.9821429"
             sodipodi:cy="134.1479"
             sodipodi:cx="-602.23212"
             id="path6118"
             style="color:#000000;fill:#ef5600;fill-opacity:1;fill-rule:nonzero;stroke:none;stroke-width:8;marker:none;visibility:visible;display:inline;overflow:visible;enable-background:accumulate"
             sodipodi:type="arc" />
          <path
             transform="matrix(-1,0,0,1,-1204.507,-30.178307)"
             d="m -618.33962,133.75471 c 0,0.97632 -0.62186,1.76777 -1.38896,1.76777 -0.7671,0 -1.38896,-0.79145 -1.38896,-1.76777 0,-0.97631 0.62186,-1.76776 1.38896,-1.76776 0.7671,0 1.38896,0.79145 1.38896,1.76776 z"
             sodipodi:ry="1.767767"
             sodipodi:rx="1.3889598"
             sodipodi:cy="133.75471"
             sodipodi:cx="-619.72858"
             id="path6120"
             style="color:#000000;fill:#ffffff;fill-opacity:1;fill-rule:nonzero;stroke:none;stroke-width:3.5;marker:none;visibility:visible;display:inline;overflow:visible;enable-background:accumulate"
             sodipodi:type="arc" />
          <path
             transform="matrix(-1.4210526,0,0,1.4210526,-1466.0269,-87.406552)"
             d="m -619.1604,134.41763 c 0,0.33125 -0.14133,0.59978 -0.31567,0.59978 -0.17435,0 -0.31568,-0.26853 -0.31568,-0.59978 0,-0.33125 0.14133,-0.59977 0.31568,-0.59977 0.17434,0 0.31567,0.26852 0.31567,0.59977 z"
             sodipodi:ry="0.59977806"
             sodipodi:rx="0.31567267"
             sodipodi:cy="134.41763"
             sodipodi:cx="-619.47607"
             id="path6122"
             style="color:#000000;fill:#000000;fill-opacity:1;fill-rule:nonzero;stroke:none;stroke-width:3.5;marker:none;visibility:visible;display:inline;overflow:visible;enable-background:accumulate"
             sodipodi:type="arc" />
          <path
             sodipodi:type="arc"
             style="color:#000000;fill:#ffffff;fill-opacity:1;fill-rule:nonzero;stroke:none;stroke-width:3.5;marker:none;visibility:visible;display:inline;overflow:visible;enable-background:accumulate"
             id="path6124"
             sodipodi:cx="-619.72858"
             sodipodi:cy="133.75471"
             sodipodi:rx="1.3889598"
             sodipodi:ry="1.767767"
             d="m -618.33962,133.75471 c 0,0.97632 -0.62186,1.76777 -1.38896,1.76777 -0.7671,0 -1.38896,-0.79145 -1.38896,-1.76777 0,-0.97631 0.62186,-1.76776 1.38896,-1.76776 0.7671,0 1.38896,0.79145 1.38896,1.76776 z"
             transform="matrix(-1,0,0,1,-1204.507,-30.178307)" />
          <path
             sodipodi:type="arc"
             style="color:#000000;fill:#000000;fill-opacity:1;fill-rule:nonzero;stroke:none;stroke-width:3.5;marker:none;visibility:visible;display:inline;overflow:visible;enable-background:accumulate"
             id="path6126"
             sodipodi:cx="-619.47607"
             sodipodi:cy="134.41763"
             sodipodi:rx="0.31567267"
             sodipodi:ry="0.59977806"
             d="m -619.1604,134.41763 c 0,0.33125 -0.14133,0.59978 -0.31567,0.59978 -0.17435,0 -0.31568,-0.26853 -0.31568,-0.59978 0,-0.33125 0.14133,-0.59977 0.31568,-0.59977 0.17434,0 0.31567,0.26852 0.31567,0.59977 z"
             transform="matrix(-1.4210526,0,0,1.4210526,-1465.585,-87.406552)" />
          <path
             sodipodi:type="arc"
             style="color:#000000;fill:#ffffff;fill-opacity:1;fill-rule:nonzero;stroke:none;stroke-width:3.5;marker:none;visibility:visible;display:inline;overflow:visible;enable-background:accumulate"
             id="path6128"
             sodipodi:cx="-619.72858"
             sodipodi:cy="133.75471"
             sodipodi:rx="1.3889598"
             sodipodi:ry="1.767767"
             d="m -618.33962,133.75471 c 0,0.97632 -0.62186,1.76777 -1.38896,1.76777 -0.7671,0 -1.38896,-0.79145 -1.38896,-1.76777 0,-0.97631 0.62186,-1.76776 1.38896,-1.76776 0.7671,0 1.38896,0.79145 1.38896,1.76776 z"
             transform="matrix(-1,0,0,1,-1208.1057,-30.178307)" />
          <path
             sodipodi:type="arc"
             style="color:#000000;fill:#000000;fill-opacity:1;fill-rule:nonzero;stroke:none;stroke-width:3.5;marker:none;visibility:visible;display:inline;overflow:visible;enable-background:accumulate"
             id="path6130"
             sodipodi:cx="-619.47607"
             sodipodi:cy="134.41763"
             sodipodi:rx="0.31567267"
             sodipodi:ry="0.59977806"
             d="m -619.1604,134.41763 c 0,0.33125 -0.14133,0.59978 -0.31567,0.59978 -0.17435,0 -0.31568,-0.26853 -0.31568,-0.59978 0,-0.33125 0.14133,-0.59977 0.31568,-0.59977 0.17434,0 0.31567,0.26852 0.31567,0.59977 z"
             transform="matrix(-1.4210526,0,0,1.4210526,-1469.6256,-87.406552)" />
          <path
             transform="matrix(-1,0,0,1,-1208.1057,-30.178307)"
             d="m -618.33962,133.75471 c 0,0.97632 -0.62186,1.76777 -1.38896,1.76777 -0.7671,0 -1.38896,-0.79145 -1.38896,-1.76777 0,-0.97631 0.62186,-1.76776 1.38896,-1.76776 0.7671,0 1.38896,0.79145 1.38896,1.76776 z"
             sodipodi:ry="1.767767"
             sodipodi:rx="1.3889598"
             sodipodi:cy="133.75471"
             sodipodi:cx="-619.72858"
             id="path6132"
             style="color:#000000;fill:#ffffff;fill-opacity:1;fill-rule:nonzero;stroke:none;stroke-width:3.5;marker:none;visibility:visible;display:inline;overflow:visible;enable-background:accumulate"
             sodipodi:type="arc" />
          <path
             transform="matrix(-1.4210526,0,0,1.4210526,-1469.2468,-87.406552)"
             d="m -619.1604,134.41763 c 0,0.33125 -0.14133,0.59978 -0.31567,0.59978 -0.17435,0 -0.31568,-0.26853 -0.31568,-0.59978 0,-0.33125 0.14133,-0.59977 0.31568,-0.59977 0.17434,0 0.31567,0.26852 0.31567,0.59977 z"
             sodipodi:ry="0.59977806"
             sodipodi:rx="0.31567267"
             sodipodi:cy="134.41763"
             sodipodi:cx="-619.47607"
             id="path6134"
             style="color:#000000;fill:#000000;fill-opacity:1;fill-rule:nonzero;stroke:none;stroke-width:3.5;marker:none;visibility:visible;display:inline;overflow:visible;enable-background:accumulate"
             sodipodi:type="arc" />
          <path
             transform="matrix(1.0825475,0,0,1.0825475,49.505419,-8.3013844)"
             d="m -592.10723,108.56404 c 0,0.20921 -0.15546,0.37881 -0.34724,0.37881 -0.19177,0 -0.34724,-0.1696 -0.34724,-0.37881 0,-0.20921 0.15547,-0.37881 0.34724,-0.37881 0.19178,0 0.34724,0.1696 0.34724,0.37881 z"
             sodipodi:ry="0.37880722"
             sodipodi:rx="0.34723994"
             sodipodi:cy="108.56404"
             sodipodi:cx="-592.45447"
             id="path6136"
             style="color:#000000;fill:#000000;fill-opacity:1;fill-rule:nonzero;stroke:#000000;stroke-width:1.60000002;stroke-linecap:round;stroke-linejoin:round;stroke-miterlimit:4;stroke-opacity:1;stroke-dasharray:none;stroke-dashoffset:0;marker:none;visibility:visible;display:inline;overflow:visible;enable-background:accumulate"
             sodipodi:type="arc" />
          <path
             transform="matrix(-0.29576054,0.64590479,0.57253783,0.36490327,-846.50103,471.19598)"
             d="m -642.58927,129.88451 c 0,0.99855 -0.57963,1.80803 -1.29464,1.80803 -0.71501,0 -1.29464,-0.80948 -1.29464,-1.80803 0,-0.99855 0.57963,-1.80804 1.29464,-1.80804 0.71501,0 1.29464,0.80949 1.29464,1.80804 z"
             sodipodi:ry="1.8080357"
             sodipodi:rx="1.2946428"
             sodipodi:cy="129.88451"
             sodipodi:cx="-643.88391"
             id="path6138"
             style="color:#000000;fill:#ff7700;fill-opacity:1;fill-rule:nonzero;stroke:none;stroke-width:1.29999995;marker:none;visibility:visible;display:inline;overflow:visible;enable-background:accumulate"
             sodipodi:type="arc" />
        </g>
      </g>
      <path
         transform="matrix(-1.5189717,0,0,0.61566344,-881.61148,677.46049)"
         d="m 107.40625,565.15625 -15.34375,8.875 15.34375,8.84375 15.34375,-8.84375 -15.34375,-8.875 z"
         id="path6350-8"
         style="fill:#ff6666;fill-opacity:0;stroke:none"
         inkscape:original="M 107.40625 565.15625 L 92.0625 574.03125 L 107.40625 582.875 L 122.75 574.03125 L 107.40625 565.15625 z "
         inkscape:radius="0"
         sodipodi:type="inkscape:offset" />
    </g>
  </g>
</svg>
