<?xml version="1.0" encoding="UTF-8" standalone="no"?>
<!-- Created with Inkscape (http://www.inkscape.org/) -->

<svg
   xmlns:dc="http://purl.org/dc/elements/1.1/"
   xmlns:cc="http://creativecommons.org/ns#"
   xmlns:rdf="http://www.w3.org/1999/02/22-rdf-syntax-ns#"
   xmlns:svg="http://www.w3.org/2000/svg"
   xmlns="http://www.w3.org/2000/svg"
   xmlns:sodipodi="http://sodipodi.sourceforge.net/DTD/sodipodi-0.dtd"
   xmlns:inkscape="http://www.inkscape.org/namespaces/inkscape"
   width="85.817581"
   height="79.359108"
   id="svg2"
   version="1.1"
   inkscape:version="0.48.5 r10040"
   sodipodi:docname="QbertDead.svg">
  <defs
     id="defs4" />
  <sodipodi:namedview
     id="base"
     pagecolor="#ffffff"
     bordercolor="#666666"
     borderopacity="1.0"
     inkscape:pageopacity="0.0"
     inkscape:pageshadow="2"
     inkscape:zoom="4.0000001"
     inkscape:cx="60.838594"
     inkscape:cy="19.409334"
     inkscape:document-units="px"
     inkscape:current-layer="g5191"
     showgrid="true"
     inkscape:window-width="1366"
     inkscape:window-height="715"
     inkscape:window-x="-8"
     inkscape:window-y="-8"
     inkscape:window-maximized="1"
     showguides="true"
     inkscape:guide-bbox="true"
     fit-margin-top="0"
     fit-margin-left="-0.1"
     fit-margin-right="0"
     fit-margin-bottom="0">
    <inkscape:grid
       units="px"
       empspacing="7"
       visible="true"
       enabled="false"
       snapvisiblegridlinesonly="false"
       type="axonomgrid"
       id="grid2985"
       originy="24.284603px"
       originx="1988.9713px" />
    <sodipodi:guide
       orientation="0,1"
       position="1405.132,980.02043"
       id="guide4040" />
  </sodipodi:namedview>
  <metadata
     id="metadata7">
    <rdf:RDF>
      <cc:Work
         rdf:about="">
        <dc:format>image/svg+xml</dc:format>
        <dc:type
           rdf:resource="http://purl.org/dc/dcmitype/StillImage" />
        <dc:title />
      </cc:Work>
    </rdf:RDF>
  </metadata>
  <g
     inkscape:label="Livello 1"
     inkscape:groupmode="layer"
     id="layer1"
     transform="translate(1988.9713,-997.48788)">
    <g
       id="g4255" />
    <g
       id="g5191"
       transform="translate(-112,513)">
      <g
         id="g5074"
         transform="matrix(1.8431931,0,0,1.8431931,-62.12293,-1362.837)"
         inkscape:export-filename="C:\Users\Lomb\Google Drive\Università\Secondo anno\Programmazione ad oggetti\Progetto\QbertFrontStanding.png"
         inkscape:export-xdpi="90"
         inkscape:export-ydpi="90">
        <g
           id="g5076">
          <g
             id="g5078"
             transform="matrix(1.5189717,0,0,1.5189717,-279.75344,117.94639)">
            <g
               id="g5084"
               transform="translate(137.53215,493.672)" />
          </g>
        </g>
      </g>
      <g
         id="g3032"
         transform="matrix(-1,0,0,1,-3668.2251,0)">
        <path
           style="fill:none;stroke:#ef5600;stroke-width:1.29999995;stroke-linecap:round;stroke-linejoin:round;stroke-miterlimit:4;stroke-opacity:1;stroke-dasharray:none"
           d="m -583.18879,110.73576 c 0.11005,1.55109 0.0454,4.49588 0.0454,4.49588 l -2.56266,0.92543"
           id="path5086"
           inkscape:connector-curvature="0"
           sodipodi:nodetypes="ccc"
           transform="matrix(2.7997582,0,0,2.7997582,-192.7058,236.72318)" />
        <path
           style="fill:none;stroke:#ef5600;stroke-width:1.29999995;stroke-linecap:round;stroke-linejoin:round;stroke-miterlimit:4;stroke-opacity:1;stroke-dasharray:none"
           d="m -586.62207,110.09859 -0.024,4.82162 -3.01413,1.23686"
           id="path5088"
           inkscape:connector-curvature="0"
           sodipodi:nodetypes="ccc"
           transform="matrix(2.7997582,0,0,2.7997582,-192.7058,236.72318)" />
        <path
           sodipodi:type="arc"
           style="color:#000000;fill:#ef5600;fill-opacity:1;fill-rule:nonzero;stroke:none;stroke-width:8;marker:none;visibility:visible;display:inline;overflow:visible;enable-background:accumulate"
           id="path5092"
           sodipodi:cx="-602.23212"
           sodipodi:cy="134.1479"
           sodipodi:rx="5.9821429"
           sodipodi:ry="5.7142859"
           d="m -596.24997,134.1479 c 0,3.15592 -2.6783,5.71429 -5.98215,5.71429 -3.30384,0 -5.98214,-2.55837 -5.98214,-5.71429 0,-3.15591 2.6783,-5.71428 5.98214,-5.71428 3.30385,0 5.98215,2.55837 5.98215,5.71428 z"
           transform="matrix(-2.7997582,0,0,2.7997582,-3517.0409,157.32635)" />
        <path
           sodipodi:type="arc"
           style="color:#000000;fill:#ffffff;fill-opacity:1;fill-rule:nonzero;stroke:none;stroke-width:3.5;marker:none;visibility:visible;display:inline;overflow:visible;enable-background:accumulate"
           id="path5094"
           sodipodi:cx="-619.72858"
           sodipodi:cy="133.75471"
           sodipodi:rx="1.3889598"
           sodipodi:ry="1.767767"
           d="m -618.33962,133.75471 c 0,0.97632 -0.62186,1.76777 -1.38896,1.76777 -0.7671,0 -1.38896,-0.79145 -1.38896,-1.76777 0,-0.97631 0.62186,-1.76776 1.38896,-1.76776 0.7671,0 1.38896,0.79145 1.38896,1.76776 z"
           transform="matrix(-2.7997582,0,0,2.7997582,-3565.0341,152.23122)" />
        <path
           sodipodi:type="arc"
           style="color:#000000;fill:#000000;fill-opacity:1;fill-rule:nonzero;stroke:none;stroke-width:3.5;marker:none;visibility:visible;display:inline;overflow:visible;enable-background:accumulate"
           id="path5096"
           sodipodi:cx="-619.47607"
           sodipodi:cy="134.41763"
           sodipodi:rx="0.31567267"
           sodipodi:ry="0.59977806"
           d="m -619.1604,134.41763 c 0,0.33125 -0.14133,0.59978 -0.31567,0.59978 -0.17435,0 -0.31568,-0.26853 -0.31568,-0.59978 0,-0.33125 0.14133,-0.59977 0.31568,-0.59977 0.17434,0 0.31567,0.26852 0.31567,0.59977 z"
           transform="matrix(-3.9786036,0,0,3.9786036,-4297.2266,-7.99403)" />
        <path
           transform="matrix(-2.7997582,0,0,2.7997582,-3565.0341,152.23122)"
           d="m -618.33962,133.75471 c 0,0.97632 -0.62186,1.76777 -1.38896,1.76777 -0.7671,0 -1.38896,-0.79145 -1.38896,-1.76777 0,-0.97631 0.62186,-1.76776 1.38896,-1.76776 0.7671,0 1.38896,0.79145 1.38896,1.76776 z"
           sodipodi:ry="1.767767"
           sodipodi:rx="1.3889598"
           sodipodi:cy="133.75471"
           sodipodi:cx="-619.72858"
           id="path5098"
           style="color:#000000;fill:#ffffff;fill-opacity:1;fill-rule:nonzero;stroke:none;stroke-width:3.5;marker:none;visibility:visible;display:inline;overflow:visible;enable-background:accumulate"
           sodipodi:type="arc" />
        <path
           transform="matrix(-3.8161168,1.1254066,1.1254066,3.8161168,-4346.607,712.38451)"
           d="m -619.1604,134.41763 c 0,0.33125 -0.14133,0.59978 -0.31567,0.59978 -0.17435,0 -0.31568,-0.26853 -0.31568,-0.59978 0,-0.33125 0.14133,-0.59977 0.31568,-0.59977 0.17434,0 0.31567,0.26852 0.31567,0.59977 z"
           sodipodi:ry="0.59977806"
           sodipodi:rx="0.31567267"
           sodipodi:cy="134.41763"
           sodipodi:cx="-619.47607"
           id="path5100"
           style="color:#000000;fill:#000000;fill-opacity:1;fill-rule:nonzero;stroke:none;stroke-width:3.5;marker:none;visibility:visible;display:inline;overflow:visible;enable-background:accumulate"
           sodipodi:type="arc" />
        <path
           transform="matrix(-2.7997582,0,0,2.7997582,-3575.1096,152.23122)"
           d="m -618.33962,133.75471 c 0,0.97632 -0.62186,1.76777 -1.38896,1.76777 -0.7671,0 -1.38896,-0.79145 -1.38896,-1.76777 0,-0.97631 0.62186,-1.76776 1.38896,-1.76776 0.7671,0 1.38896,0.79145 1.38896,1.76776 z"
           sodipodi:ry="1.767767"
           sodipodi:rx="1.3889598"
           sodipodi:cy="133.75471"
           sodipodi:cx="-619.72858"
           id="path5102"
           style="color:#000000;fill:#ffffff;fill-opacity:1;fill-rule:nonzero;stroke:none;stroke-width:3.5;marker:none;visibility:visible;display:inline;overflow:visible;enable-background:accumulate"
           sodipodi:type="arc" />
        <path
           transform="matrix(-3.9786036,0,0,3.9786036,-4307.302,-7.99403)"
           d="m -619.1604,134.41763 c 0,0.33125 -0.14133,0.59978 -0.31567,0.59978 -0.17435,0 -0.31568,-0.26853 -0.31568,-0.59978 0,-0.33125 0.14133,-0.59977 0.31568,-0.59977 0.17434,0 0.31567,0.26852 0.31567,0.59977 z"
           sodipodi:ry="0.59977806"
           sodipodi:rx="0.31567267"
           sodipodi:cy="134.41763"
           sodipodi:cx="-619.47607"
           id="path5104"
           style="color:#000000;fill:#000000;fill-opacity:1;fill-rule:nonzero;stroke:none;stroke-width:3.5;marker:none;visibility:visible;display:inline;overflow:visible;enable-background:accumulate"
           sodipodi:type="arc" />
        <path
           sodipodi:type="arc"
           style="color:#000000;fill:#ff7700;fill-opacity:1;fill-rule:nonzero;stroke:none;stroke-width:1.29999995;marker:none;visibility:visible;display:inline;overflow:visible;enable-background:accumulate"
           id="path5112"
           sodipodi:cx="-643.88391"
           sodipodi:cy="129.88451"
           sodipodi:rx="1.2946428"
           sodipodi:ry="1.8080357"
           d="m -642.58927,129.88451 c 0,0.99855 -0.57963,1.80803 -1.29464,1.80803 -0.71501,0 -1.29464,-0.80948 -1.29464,-1.80803 0,-0.99855 0.57963,-1.80804 1.29464,-1.80804 0.71501,0 1.29464,0.80949 1.29464,1.80804 z"
           transform="matrix(-0.82805798,1.8083772,1.6029675,1.0216409,-2562.7039,1555.958)" />
        <path
           inkscape:transform-center-y="5.8582687"
           inkscape:transform-center-x="4.9750435"
           style="fill:#ef5600;fill-opacity:1;stroke:#ef5600;stroke-width:3.5;stroke-linecap:round;stroke-linejoin:miter;stroke-miterlimit:4;stroke-opacity:1;stroke-dasharray:none"
           d="m -586.97029,106.64337 -3.27491,3.83891"
           id="path5090"
           inkscape:connector-curvature="0"
           sodipodi:nodetypes="cc"
           transform="matrix(2.7997582,0,0,2.7997582,-192.7058,236.72318)" />
        <path
           inkscape:transform-center-y="11.60027"
           inkscape:transform-center-x="10.079852"
           sodipodi:type="arc"
           style="color:#000000;fill:#000000;fill-opacity:1;fill-rule:nonzero;stroke:#000000;stroke-width:1.60000002;stroke-linecap:round;stroke-linejoin:round;stroke-miterlimit:4;stroke-opacity:1;stroke-dasharray:none;stroke-dashoffset:0;marker:none;visibility:visible;display:inline;overflow:visible;enable-background:accumulate"
           id="path5110"
           sodipodi:cx="-592.45447"
           sodipodi:cy="108.56404"
           sodipodi:rx="0.34723994"
           sodipodi:ry="0.37880722"
           d="m -592.10723,108.56404 c 0,0.20921 -0.15546,0.37881 -0.34724,0.37881 -0.19177,0 -0.34724,-0.1696 -0.34724,-0.37881 0,-0.20921 0.15547,-0.37881 0.34724,-0.37881 0.19178,0 0.34724,0.1696 0.34724,0.37881 z"
           transform="matrix(2.8250937,-1.0977365,1.0977365,2.8250937,-291.2052,-410.64762)" />
        <path
           sodipodi:type="arc"
           style="color:#000000;fill:#ffffff;fill-opacity:1;fill-rule:nonzero;stroke:none;stroke-width:3.5;marker:none;visibility:visible;display:inline;overflow:visible;enable-background:accumulate"
           id="path5106"
           sodipodi:cx="-619.72858"
           sodipodi:cy="133.75471"
           sodipodi:rx="1.3889598"
           sodipodi:ry="1.767767"
           d="m -618.33962,133.75471 c 0,0.97632 -0.62186,1.76777 -1.38896,1.76777 -0.7671,0 -1.38896,-0.79145 -1.38896,-1.76777 0,-0.97631 0.62186,-1.76776 1.38896,-1.76776 0.7671,0 1.38896,0.79145 1.38896,1.76776 z"
           transform="matrix(-2.7997582,0,0,2.7997582,-3575.1096,152.23122)" />
        <path
           sodipodi:type="arc"
           style="color:#000000;fill:#000000;fill-opacity:1;fill-rule:nonzero;stroke:none;stroke-width:3.5;marker:none;visibility:visible;display:inline;overflow:visible;enable-background:accumulate"
           id="path5108"
           sodipodi:cx="-619.47607"
           sodipodi:cy="134.41763"
           sodipodi:rx="0.31567267"
           sodipodi:ry="0.59977806"
           d="m -619.1604,134.41763 c 0,0.33125 -0.14133,0.59978 -0.31567,0.59978 -0.17435,0 -0.31568,-0.26853 -0.31568,-0.59978 0,-0.33125 0.14133,-0.59977 0.31568,-0.59977 0.17434,0 0.31567,0.26852 0.31567,0.59977 z"
           transform="matrix(-3.8351208,1.0588366,1.0588366,3.8351208,-4359.6836,668.59156)" />
        <path
           transform="matrix(-2.7997582,0,0,1.1347866,-1533.401,-111.05318)"
           d="m 107.40625,565.15625 -15.34375,8.875 15.34375,8.84375 15.34375,-8.84375 -15.34375,-8.875 z"
           id="path5114"
           style="fill:#ff6666;fill-opacity:0;stroke:none"
           inkscape:original="M 107.40625 565.15625 L 92.0625 574.03125 L 107.40625 582.875 L 122.75 574.03125 L 107.40625 565.15625 z "
           inkscape:radius="0"
           sodipodi:type="inkscape:offset" />
        <path
           style="color:#000000;fill:#ffffff;fill-opacity:1;stroke:none;stroke-width:4;marker:none;visibility:visible;display:inline;overflow:visible;enable-background:accumulate"
           d="m -1795.9875,498.2379 c 0,6.90741 -12.1451,12.6252 -24.8738,13.60255 -1.2651,0.0971 -3.094,2.01795 -5.3788,4.02245 -0.7152,0.62749 -1.0714,0.35616 -1.1204,-0.0122 -0.2117,-1.59079 -1.0695,-3.98049 -2.3125,-4.10316 -12.2076,-1.20473 -19.0645,-6.79514 -19.0645,-13.50966 0,-7.59392 11.8085,-13.75 26.375,-13.75 14.5664,0 26.375,6.15608 26.375,13.75 z"
           id="path5142"
           inkscape:connector-curvature="0"
           sodipodi:nodetypes="sssssssss" />
        <g
           transform="matrix(0.27970086,0,0,0.33683813,-1361.7491,1108.6588)"
           id="g5145">
          <text
             xml:space="preserve"
             style="font-size:43.0773201px;font-style:normal;font-weight:bold;line-height:125%;letter-spacing:0px;word-spacing:0px;fill:#000000;fill-opacity:1;stroke:none;font-family:Sans;-inkscape-font-specification:Sans Bold"
             x="-2067.4077"
             y="-1445.7821"
             id="text5147"
             sodipodi:linespacing="125%"
             transform="matrix(0.85732555,0.05494552,-0.06236918,1.1624208,0,0)"><tspan
               sodipodi:role="line"
               id="tspan5149"
               x="-2067.4077"
               y="-1445.7821">!</tspan></text>
          <text
             xml:space="preserve"
             style="font-size:39.01771164px;font-style:normal;font-weight:bold;line-height:125%;letter-spacing:0px;word-spacing:0px;fill:#000000;fill-opacity:1;stroke:none;font-family:Sans;-inkscape-font-specification:Sans Bold"
             x="-1939.6766"
             y="-1498.314"
             id="text5151"
             sodipodi:linespacing="125%"
             transform="matrix(0.96867152,0.1452717,-0.1391238,1.0114773,0,0)"><tspan
               sodipodi:role="line"
               id="tspan5153"
               x="-1939.6766"
               y="-1498.314">#</tspan></text>
          <text
             xml:space="preserve"
             style="font-size:43.06480026px;font-style:normal;font-weight:bold;line-height:125%;letter-spacing:0px;word-spacing:0px;fill:#000000;fill-opacity:1;stroke:none;font-family:Sans;-inkscape-font-specification:Sans Bold"
             x="-2186.5999"
             y="-1260.1715"
             id="text5155"
             sodipodi:linespacing="125%"
             transform="matrix(0.85172506,0.16460511,-0.16862911,1.1414984,0,0)"><tspan
               sodipodi:role="line"
               id="tspan5157"
               x="-2186.5999"
               y="-1260.1715">?</tspan></text>
          <text
             transform="matrix(0.84098891,0.22774779,-0.32998373,1.0997136,0,0)"
             sodipodi:linespacing="125%"
             id="text5159"
             y="-1147.0193"
             x="-2354.0686"
             style="font-size:37.69276428px;font-style:normal;font-weight:bold;line-height:125%;letter-spacing:0px;word-spacing:0px;fill:#000000;fill-opacity:1;stroke:none;font-family:Sans;-inkscape-font-specification:Sans Bold"
             xml:space="preserve"><tspan
               y="-1147.0193"
               x="-2354.0686"
               id="tspan5161"
               sodipodi:role="line">!</tspan></text>
          <path
             sodipodi:type="spiral"
             style="fill:none;stroke:#000000;stroke-width:4;stroke-linecap:butt;stroke-linejoin:miter;stroke-miterlimit:4;stroke-opacity:1;stroke-dasharray:none"
             id="path5163"
             sodipodi:cx="-1146.2201"
             sodipodi:cy="-1907.0148"
             sodipodi:expansion="1"
             sodipodi:revolution="2.2724154"
             sodipodi:radius="14.998305"
             sodipodi:argument="-15.333255"
             sodipodi:t0="0.12240806"
             d="m -1145.2579,-1908.5783 c 1.6604,0.053 2.3759,1.9968 2.0066,3.3905 -0.6394,2.4136 -3.4726,3.3456 -5.6606,2.5471 -3.1662,-1.1554 -4.3352,-4.9639 -3.0876,-7.9306 1.6498,-3.9232 6.4606,-5.3334 10.2007,-3.6281 4.6828,2.135 6.3359,7.9598 4.1686,12.4707 -2.6156,5.4441 -9.4606,7.3409 -14.7408,4.7091 -6.2064,-3.0934 -8.3475,-10.9622 -5.2496,-17.0108 3.4731,-6.7809 12.0328,-9.2633 18.7949,-6.0332"
             transform="matrix(1.0079402,0,0,0.91356842,-538.48799,-65.384988)" />
          <path
             transform="matrix(-0.95374318,-0.32240794,0.30062261,-1.0228585,-2133.351,-4131.2234)"
             d="m -1145.2579,-1908.5783 c 1.6604,0.053 2.3759,1.9968 2.0066,3.3905 -0.6394,2.4136 -3.4726,3.3456 -5.6606,2.5471 -3.1662,-1.1554 -4.3352,-4.9639 -3.0876,-7.9306 1.6498,-3.9232 6.4606,-5.3334 10.2007,-3.6281 4.6828,2.135 6.3359,7.9598 4.1686,12.4707 -2.6156,5.4441 -9.4606,7.3409 -14.7408,4.7091 -6.2064,-3.0934 -8.3475,-10.9622 -5.2496,-17.0108 3.4731,-6.7809 12.0328,-9.2633 18.7949,-6.0332"
             sodipodi:t0="0.12240806"
             sodipodi:argument="-15.333255"
             sodipodi:radius="14.998305"
             sodipodi:revolution="2.2724154"
             sodipodi:expansion="1"
             sodipodi:cy="-1907.0148"
             sodipodi:cx="-1146.2201"
             id="path5165"
             style="fill:none;stroke:#000000;stroke-width:4;stroke-linecap:butt;stroke-linejoin:miter;stroke-miterlimit:4;stroke-opacity:1;stroke-dasharray:none"
             sodipodi:type="spiral" />
        </g>
      </g>
    </g>
  </g>
</svg>
