<?xml version="1.0" encoding="UTF-8" standalone="no"?>
<!-- Created with Inkscape (http://www.inkscape.org/) -->

<svg
   xmlns:dc="http://purl.org/dc/elements/1.1/"
   xmlns:cc="http://creativecommons.org/ns#"
   xmlns:rdf="http://www.w3.org/1999/02/22-rdf-syntax-ns#"
   xmlns:svg="http://www.w3.org/2000/svg"
   xmlns="http://www.w3.org/2000/svg"
   xmlns:sodipodi="http://sodipodi.sourceforge.net/DTD/sodipodi-0.dtd"
   xmlns:inkscape="http://www.inkscape.org/namespaces/inkscape"
   width="85.817581"
   height="60.210766"
   id="svg2"
   version="1.1"
   inkscape:version="0.48.5 r10040"
   sodipodi:docname="QbertOnDisk.svg">
  <defs
     id="defs4" />
  <sodipodi:namedview
     id="base"
     pagecolor="#ffffff"
     bordercolor="#666666"
     borderopacity="1.0"
     inkscape:pageopacity="0.0"
     inkscape:pageshadow="2"
     inkscape:zoom="0.64"
     inkscape:cx="442.09606"
     inkscape:cy="-230.37853"
     inkscape:document-units="px"
     inkscape:current-layer="layer1"
     showgrid="true"
     inkscape:window-width="1366"
     inkscape:window-height="715"
     inkscape:window-x="-8"
     inkscape:window-y="-8"
     inkscape:window-maximized="1"
     showguides="true"
     inkscape:guide-bbox="true"
     fit-margin-top="0"
     fit-margin-left="-0.1"
     fit-margin-right="0"
     fit-margin-bottom="0">
    <inkscape:grid
       units="px"
       empspacing="7"
       visible="true"
       enabled="false"
       snapvisiblegridlinesonly="false"
       type="axonomgrid"
       id="grid2985"
       originy="28.57618px"
       originx="2083.8734px" />
    <sodipodi:guide
       orientation="0,1"
       position="1500.0341,984.31201"
       id="guide4040" />
  </sodipodi:namedview>
  <metadata
     id="metadata7">
    <rdf:RDF>
      <cc:Work
         rdf:about="">
        <dc:format>image/svg+xml</dc:format>
        <dc:type
           rdf:resource="http://purl.org/dc/dcmitype/StillImage" />
        <dc:title />
      </cc:Work>
    </rdf:RDF>
  </metadata>
  <g
     inkscape:label="Livello 1"
     inkscape:groupmode="layer"
     id="layer1"
     transform="translate(2083.8734,-1020.9278)">
    <g
       id="g4255" />
    <g
       id="g5045"
       transform="matrix(-1,0,0,1,-4142.6271,97.51829)">
      <g
         id="g4991"
         transform="matrix(1.8431931,0,0,1.8431931,-329.62293,-956.33695)"
         inkscape:export-filename="C:\Users\Lomb\Google Drive\Università\Secondo anno\Programmazione ad oggetti\Progetto\QbertFrontStanding.png"
         inkscape:export-xdpi="90"
         inkscape:export-ydpi="90">
        <g
           id="g4993">
          <g
             id="g4995"
             transform="matrix(1.5189717,0,0,1.5189717,-279.75344,117.94639)">
            <g
               id="g5001"
               transform="translate(137.53215,493.672)" />
          </g>
          <g
             id="g5256">
            <g
               id="g5033"
               transform="matrix(0.54253675,0,0,0.54253675,18.21123,689.20448)">
              <path
                 style="color:#000000;fill:#56a999;fill-opacity:1;fill-rule:nonzero;stroke:none;stroke-width:1.57599998;marker:none;visibility:visible;display:inline;overflow:visible;enable-background:accumulate"
                 d="m -1783.0389,652.9199 c 0,0.63329 0.1301,4.89907 0,5.51017 -1.4654,6.87886 -11.0595,11.19018 -22.4941,11.19018 -11.4213,0 -21.0571,-4.3231 -22.5394,-11.19018 -0.1336,-0.61885 0,-4.86849 0,-5.51017 0,-7.76187 10.0889,-11.40787 22.5394,-11.40787 12.4504,0 22.4941,3.646 22.4941,11.40787 z"
                 id="path5035"
                 inkscape:connector-curvature="0"
                 sodipodi:nodetypes="sssssss" />
              <path
                 style="color:#000000;fill:#dede00;fill-opacity:1;fill-rule:nonzero;stroke:none;stroke-width:1.57599998;marker:none;visibility:visible;display:inline;overflow:visible;enable-background:accumulate"
                 d="m -1782.9894,652.963 c 0,7.24442 -10.1452,12.90952 -22.5957,12.90952 -12.4505,0 -22.4872,-5.7082 -22.4872,-12.95262 0,-7.24442 10.0367,-13.28174 22.4872,-13.28174 12.4505,0 22.5957,6.08043 22.5957,13.32484 z"
                 id="path5037"
                 inkscape:connector-curvature="0"
                 sodipodi:nodetypes="sssss" />
              <path
                 style="fill:#5646ef;fill-opacity:1;stroke:none"
                 d="m -1828.0724,652.9199 22.4872,0.0431 0,12.91489 c -13.7169,-0.0464 -22.6059,-6.3447 -22.4872,-12.958 z"
                 id="path5039"
                 inkscape:connector-curvature="0"
                 sodipodi:nodetypes="cccc" />
              <path
                 style="fill:#008800;fill-opacity:1;stroke:none"
                 d="m -1805.5852,652.963 22.5463,-0.0431 c -0.2555,8.83789 -12.9783,13.1598 -22.5463,12.958 z"
                 id="path5041"
                 inkscape:connector-curvature="0"
                 sodipodi:nodetypes="cccc" />
              <path
                 style="fill:#ef1021;fill-opacity:1;stroke:none"
                 d="m -1805.5852,652.963 0,-13.32483 c 15.4827,0.18775 22.9173,7.80489 22.5462,13.28173"
                 id="path5043"
                 inkscape:connector-curvature="0"
                 sodipodi:nodetypes="ccc" />
            </g>
            <g
               style="fill:#ffffff;stroke:#ffffff"
               id="g4997"
               transform="matrix(1.5189717,0,0,1.5189717,-69.771918,867.82019)">
              <path
                 transform="matrix(1.0825475,0,0,1.0825475,49.505419,-8.3013844)"
                 d="m -592.10723,108.56404 c 0,0.20921 -0.15546,0.37881 -0.34724,0.37881 -0.19177,0 -0.34724,-0.1696 -0.34724,-0.37881 0,-0.20921 0.15547,-0.37881 0.34724,-0.37881 0.19178,0 0.34724,0.1696 0.34724,0.37881 z"
                 sodipodi:ry="0.37880722"
                 sodipodi:rx="0.34723994"
                 sodipodi:cy="108.56404"
                 sodipodi:cx="-592.45447"
                 id="path4999"
                 style="color:#000000;fill:#ffffff;fill-opacity:1;fill-rule:nonzero;stroke:#ffffff;stroke-width:1.60000002;stroke-linecap:round;stroke-linejoin:round;stroke-miterlimit:4;stroke-opacity:1;stroke-dasharray:none;stroke-dashoffset:0;marker:none;visibility:visible;display:inline;overflow:visible;enable-background:accumulate"
                 sodipodi:type="arc" />
            </g>
            <path
               style="fill:none;stroke:#ef5600;stroke-width:1.29999995;stroke-linecap:round;stroke-linejoin:round;stroke-miterlimit:4;stroke-opacity:1;stroke-dasharray:none"
               d="m -583.18879,110.73576 c 0.11005,1.55109 0.0454,4.49588 0.0454,4.49588 l -2.56266,0.92543"
               id="path5003"
               inkscape:connector-curvature="0"
               sodipodi:nodetypes="ccc"
               transform="matrix(1.5189717,0,0,1.5189717,-70.845994,867.82019)" />
            <path
               style="fill:none;stroke:#ef5600;stroke-width:1.29999995;stroke-linecap:round;stroke-linejoin:round;stroke-miterlimit:4;stroke-opacity:1;stroke-dasharray:none"
               d="m -586.62207,110.09859 -0.024,4.82162 -3.01413,1.23686"
               id="path5005"
               inkscape:connector-curvature="0"
               sodipodi:nodetypes="ccc"
               transform="matrix(1.5189717,0,0,1.5189717,-70.845994,867.82019)" />
            <path
               sodipodi:type="arc"
               style="color:#000000;fill:#ef5600;fill-opacity:1;fill-rule:nonzero;stroke:none;stroke-width:8;marker:none;visibility:visible;display:inline;overflow:visible;enable-background:accumulate"
               id="path5009"
               sodipodi:cx="-602.23212"
               sodipodi:cy="134.1479"
               sodipodi:rx="5.9821429"
               sodipodi:ry="5.7142859"
               d="m -596.24997,134.1479 c 0,3.15592 -2.6783,5.71429 -5.98215,5.71429 -3.30384,0 -5.98214,-2.55837 -5.98214,-5.71429 0,-3.15591 2.6783,-5.71428 5.98214,-5.71428 3.30385,0 5.98215,2.55837 5.98215,5.71428 z"
               transform="matrix(-1.5189717,0,0,1.5189717,-1874.42,824.74449)" />
            <path
               sodipodi:type="arc"
               style="color:#000000;fill:#ffffff;fill-opacity:1;fill-rule:nonzero;stroke:none;stroke-width:3.5;marker:none;visibility:visible;display:inline;overflow:visible;enable-background:accumulate"
               id="path5011"
               sodipodi:cx="-619.72858"
               sodipodi:cy="133.75471"
               sodipodi:rx="1.3889598"
               sodipodi:ry="1.767767"
               d="m -618.33962,133.75471 c 0,0.97632 -0.62186,1.76777 -1.38896,1.76777 -0.7671,0 -1.38896,-0.79145 -1.38896,-1.76777 0,-0.97631 0.62186,-1.76776 1.38896,-1.76776 0.7671,0 1.38896,0.79145 1.38896,1.76776 z"
               transform="matrix(-1.5189717,0,0,1.5189717,-1900.458,821.98019)" />
            <path
               sodipodi:type="arc"
               style="color:#000000;fill:#000000;fill-opacity:1;fill-rule:nonzero;stroke:none;stroke-width:3.5;marker:none;visibility:visible;display:inline;overflow:visible;enable-background:accumulate"
               id="path5013"
               sodipodi:cx="-619.47607"
               sodipodi:cy="134.41763"
               sodipodi:rx="0.31567267"
               sodipodi:ry="0.59977806"
               d="m -619.1604,134.41763 c 0,0.33125 -0.14133,0.59978 -0.31567,0.59978 -0.17435,0 -0.31568,-0.26853 -0.31568,-0.59978 0,-0.33125 0.14133,-0.59977 0.31568,-0.59977 0.17434,0 0.31567,0.26852 0.31567,0.59977 z"
               transform="matrix(-2.1585387,0,0,2.1585387,-2297.6994,735.05211)" />
            <path
               transform="matrix(-1.5189717,0,0,1.5189717,-1900.458,821.98019)"
               d="m -618.33962,133.75471 c 0,0.97632 -0.62186,1.76777 -1.38896,1.76777 -0.7671,0 -1.38896,-0.79145 -1.38896,-1.76777 0,-0.97631 0.62186,-1.76776 1.38896,-1.76776 0.7671,0 1.38896,0.79145 1.38896,1.76776 z"
               sodipodi:ry="1.767767"
               sodipodi:rx="1.3889598"
               sodipodi:cy="133.75471"
               sodipodi:cx="-619.72858"
               id="path5015"
               style="color:#000000;fill:#ffffff;fill-opacity:1;fill-rule:nonzero;stroke:none;stroke-width:3.5;marker:none;visibility:visible;display:inline;overflow:visible;enable-background:accumulate"
               sodipodi:type="arc" />
            <path
               transform="matrix(-2.1585387,0,0,2.1585387,-2297.0281,735.05211)"
               d="m -619.1604,134.41763 c 0,0.33125 -0.14133,0.59978 -0.31567,0.59978 -0.17435,0 -0.31568,-0.26853 -0.31568,-0.59978 0,-0.33125 0.14133,-0.59977 0.31568,-0.59977 0.17434,0 0.31567,0.26852 0.31567,0.59977 z"
               sodipodi:ry="0.59977806"
               sodipodi:rx="0.31567267"
               sodipodi:cy="134.41763"
               sodipodi:cx="-619.47607"
               id="path5017"
               style="color:#000000;fill:#000000;fill-opacity:1;fill-rule:nonzero;stroke:none;stroke-width:3.5;marker:none;visibility:visible;display:inline;overflow:visible;enable-background:accumulate"
               sodipodi:type="arc" />
            <path
               transform="matrix(-1.5189717,0,0,1.5189717,-1905.9243,821.98019)"
               d="m -618.33962,133.75471 c 0,0.97632 -0.62186,1.76777 -1.38896,1.76777 -0.7671,0 -1.38896,-0.79145 -1.38896,-1.76777 0,-0.97631 0.62186,-1.76776 1.38896,-1.76776 0.7671,0 1.38896,0.79145 1.38896,1.76776 z"
               sodipodi:ry="1.767767"
               sodipodi:rx="1.3889598"
               sodipodi:cy="133.75471"
               sodipodi:cx="-619.72858"
               id="path5019"
               style="color:#000000;fill:#ffffff;fill-opacity:1;fill-rule:nonzero;stroke:none;stroke-width:3.5;marker:none;visibility:visible;display:inline;overflow:visible;enable-background:accumulate"
               sodipodi:type="arc" />
            <path
               transform="matrix(-2.1585387,0,0,2.1585387,-2303.1657,735.05211)"
               d="m -619.1604,134.41763 c 0,0.33125 -0.14133,0.59978 -0.31567,0.59978 -0.17435,0 -0.31568,-0.26853 -0.31568,-0.59978 0,-0.33125 0.14133,-0.59977 0.31568,-0.59977 0.17434,0 0.31567,0.26852 0.31567,0.59977 z"
               sodipodi:ry="0.59977806"
               sodipodi:rx="0.31567267"
               sodipodi:cy="134.41763"
               sodipodi:cx="-619.47607"
               id="path5021"
               style="color:#000000;fill:#000000;fill-opacity:1;fill-rule:nonzero;stroke:none;stroke-width:3.5;marker:none;visibility:visible;display:inline;overflow:visible;enable-background:accumulate"
               sodipodi:type="arc" />
            <path
               sodipodi:type="arc"
               style="color:#000000;fill:#ffffff;fill-opacity:1;fill-rule:nonzero;stroke:none;stroke-width:3.5;marker:none;visibility:visible;display:inline;overflow:visible;enable-background:accumulate"
               id="path5023"
               sodipodi:cx="-619.72858"
               sodipodi:cy="133.75471"
               sodipodi:rx="1.3889598"
               sodipodi:ry="1.767767"
               d="m -618.33962,133.75471 c 0,0.97632 -0.62186,1.76777 -1.38896,1.76777 -0.7671,0 -1.38896,-0.79145 -1.38896,-1.76777 0,-0.97631 0.62186,-1.76776 1.38896,-1.76776 0.7671,0 1.38896,0.79145 1.38896,1.76776 z"
               transform="matrix(-1.5189717,0,0,1.5189717,-1905.9243,821.98019)" />
            <path
               sodipodi:type="arc"
               style="color:#000000;fill:#000000;fill-opacity:1;fill-rule:nonzero;stroke:none;stroke-width:3.5;marker:none;visibility:visible;display:inline;overflow:visible;enable-background:accumulate"
               id="path5025"
               sodipodi:cx="-619.47607"
               sodipodi:cy="134.41763"
               sodipodi:rx="0.31567267"
               sodipodi:ry="0.59977806"
               d="m -619.1604,134.41763 c 0,0.33125 -0.14133,0.59978 -0.31567,0.59978 -0.17435,0 -0.31568,-0.26853 -0.31568,-0.59978 0,-0.33125 0.14133,-0.59977 0.31568,-0.59977 0.17434,0 0.31567,0.26852 0.31567,0.59977 z"
               transform="matrix(-2.1585387,0,0,2.1585387,-2302.5903,735.05211)" />
            <path
               sodipodi:type="arc"
               style="color:#000000;fill:#ff7700;fill-opacity:1;fill-rule:nonzero;stroke:none;stroke-width:1.29999995;marker:none;visibility:visible;display:inline;overflow:visible;enable-background:accumulate"
               id="path5029"
               sodipodi:cx="-643.88391"
               sodipodi:cy="129.88451"
               sodipodi:rx="1.2946428"
               sodipodi:ry="1.8080357"
               d="m -642.58927,129.88451 c 0,0.99855 -0.57963,1.80803 -1.29464,1.80803 -0.71501,0 -1.29464,-0.80948 -1.29464,-1.80803 0,-0.99855 0.57963,-1.80804 1.29464,-1.80804 0.71501,0 1.29464,0.80949 1.29464,1.80804 z"
               transform="matrix(-0.44925189,0.98111109,0.86966878,0.55427774,-1356.6571,1583.5535)" />
            <path
               inkscape:transform-center-y="-0.75271573"
               inkscape:transform-center-x="8.1664732"
               style="fill:#ef5600;fill-opacity:1;stroke:#ef5600;stroke-width:3.5;stroke-linecap:round;stroke-linejoin:miter;stroke-miterlimit:4;stroke-opacity:1;stroke-dasharray:none"
               d="m -587.30163,106.54547 -5.00396,-0.65007"
               id="path5007"
               inkscape:connector-curvature="0"
               sodipodi:nodetypes="cc"
               transform="matrix(1.5189717,0,0,1.5189717,-70.845994,867.82019)" />
            <path
               sodipodi:type="arc"
               style="color:#000000;fill:#000000;fill-opacity:1;fill-rule:nonzero;stroke:#000000;stroke-width:1.60000002;stroke-linecap:round;stroke-linejoin:round;stroke-miterlimit:4;stroke-opacity:1;stroke-dasharray:none;stroke-dashoffset:0;marker:none;visibility:visible;display:inline;overflow:visible;enable-background:accumulate"
               id="path5027"
               sodipodi:cx="-592.45447"
               sodipodi:cy="108.56404"
               sodipodi:rx="0.34723994"
               sodipodi:ry="0.37880722"
               d="m -592.10723,108.56404 c 0,0.20921 -0.15546,0.37881 -0.34724,0.37881 -0.19177,0 -0.34724,-0.1696 -0.34724,-0.37881 0,-0.20921 0.15547,-0.37881 0.34724,-0.37881 0.19178,0 0.34724,0.1696 0.34724,0.37881 z"
               transform="matrix(1.3353501,0.95956078,-0.95956078,1.3353501,-75.554887,1452.0697)" />
            <path
               transform="matrix(-1.5189717,0,0,0.61566344,-798.22244,679.13873)"
               d="m 107.40625,565.15625 -15.34375,8.875 15.34375,8.84375 15.34375,-8.84375 -15.34375,-8.875 z"
               id="path5031"
               style="fill:#ff6666;fill-opacity:0;stroke:none"
               inkscape:original="M 107.40625 565.15625 L 92.0625 574.03125 L 107.40625 582.875 L 122.75 574.03125 L 107.40625 565.15625 z "
               inkscape:radius="0"
               sodipodi:type="inkscape:offset" />
          </g>
        </g>
      </g>
    </g>
  </g>
</svg>
