<?xml version="1.0" encoding="UTF-8" standalone="no"?>
<!-- Created with Inkscape (http://www.inkscape.org/) -->

<svg
   xmlns:dc="http://purl.org/dc/elements/1.1/"
   xmlns:cc="http://creativecommons.org/ns#"
   xmlns:rdf="http://www.w3.org/1999/02/22-rdf-syntax-ns#"
   xmlns:svg="http://www.w3.org/2000/svg"
   xmlns="http://www.w3.org/2000/svg"
   xmlns:sodipodi="http://sodipodi.sourceforge.net/DTD/sodipodi-0.dtd"
   xmlns:inkscape="http://www.inkscape.org/namespaces/inkscape"
   width="85.91758"
   height="43.042122"
   id="svg2"
   version="1.1"
   inkscape:version="0.48.5 r10040"
   sodipodi:docname="SamMove.svg">
  <defs
     id="defs4" />
  <sodipodi:namedview
     id="base"
     pagecolor="#ffffff"
     bordercolor="#666666"
     borderopacity="1.0"
     inkscape:pageopacity="0.0"
     inkscape:pageshadow="2"
     inkscape:zoom="1"
     inkscape:cx="131.82177"
     inkscape:cy="-166.00121"
     inkscape:document-units="px"
     inkscape:current-layer="layer1"
     showgrid="true"
     inkscape:window-width="1366"
     inkscape:window-height="715"
     inkscape:window-x="-8"
     inkscape:window-y="-8"
     inkscape:window-maximized="1"
     showguides="true"
     inkscape:guide-bbox="true"
     fit-margin-top="0"
     fit-margin-left="0"
     fit-margin-right="0"
     fit-margin-bottom="0">
    <inkscape:grid
       units="px"
       empspacing="7"
       visible="true"
       enabled="false"
       snapvisiblegridlinesonly="false"
       type="axonomgrid"
       id="grid2985"
       originy="541.34971px"
       originx="2146.4119px" />
    <sodipodi:guide
       orientation="0,1"
       position="1562.5726,1497.0854"
       id="guide4040" />
  </sodipodi:namedview>
  <metadata
     id="metadata7">
    <rdf:RDF>
      <cc:Work
         rdf:about="">
        <dc:format>image/svg+xml</dc:format>
        <dc:type
           rdf:resource="http://purl.org/dc/dcmitype/StillImage" />
        <dc:title />
      </cc:Work>
    </rdf:RDF>
  </metadata>
  <g
     inkscape:label="Livello 1"
     inkscape:groupmode="layer"
     id="layer1"
     transform="translate(2146.4119,-1550.8698)">
    <g
       id="g4255" />
    <g
       id="g4423"
       transform="matrix(-1,0,0,1,-4208.3204,-2.8284271)">
      <g
         transform="translate(-362.04388,1085.0562)"
         id="g4226">
        <path
           sodipodi:nodetypes="ccc"
           inkscape:connector-curvature="0"
           id="path4228"
           d="m -1751.6798,495.51329 c 0.2821,3.977 0.1164,11.5275 0.1164,11.5275 l -6.5707,2.3728"
           style="fill:none;stroke:#008800;stroke-width:3.33321357;stroke-linecap:round;stroke-linejoin:round;stroke-miterlimit:4;stroke-opacity:1;stroke-dasharray:none" />
        <path
           sodipodi:nodetypes="ccc"
           inkscape:connector-curvature="0"
           id="path4230"
           d="m -1739.5902,496.09419 c 0.2821,3.977 0.1164,11.5275 0.1164,11.5275 l -6.5707,2.3728"
           style="fill:none;stroke:#008800;stroke-width:3.33321357;stroke-linecap:round;stroke-linejoin:round;stroke-miterlimit:4;stroke-opacity:1;stroke-dasharray:none" />
        <path
           sodipodi:nodetypes="sssss"
           inkscape:connector-curvature="0"
           id="path4232"
           d="m -1731.867,489.9346 c -2.7722,8.52706 -2.0536,15.3 -20.3257,15.6536 -9.0779,0.1757 -9.5459,-6.9674 -9.5459,-15.9983 0,-9.0309 6.6535,-14.7609 15.7331,-14.7609 9.0797,0 18.3694,2.0915 14.1385,15.1056 z"
           style="color:#000000;fill:#008800;fill-opacity:1;fill-rule:nonzero;stroke:none;stroke-width:1.57599998;marker:none;visibility:visible;display:inline;overflow:visible;enable-background:accumulate" />
        <path
           sodipodi:nodetypes="cccccccccsc"
           inkscape:connector-curvature="0"
           id="path4234"
           d="m -1756.7308,478.3249 c 2.2538,-4.46364 5.4221,-8.8433 5.4221,-8.8433 1.0736,3.81845 1.4983,4.08014 5.0318,5.31855 3.5755,-1.54253 -2.4932,-5.03725 2.7464,-6.15815 -1.6635,1.9596 3.5263,2.77144 4.023,5.52108 2.9249,-2.1591 7.8048,-1.14066 12.0195,-1.85299 -3.1809,2.9186 -4.7962,1.63841 -5.2591,4.33101 2.5173,3.63471 6.3828,4.34224 8.8388,4.16034 -3.5591,1.7698 -3.2226,1.53082 -6.8059,1.80586 -2.5429,-0.13723 -4.3135,-2.21512 -6.9155,-2.14543 -8.7385,0.23404 -17.7679,2.88555 -19.1011,-2.13697 z"
           style="fill:#ff7700;fill-opacity:1;stroke:none" />
        <path
           sodipodi:nodetypes="ccc"
           inkscape:connector-curvature="0"
           id="path4236"
           d="m -1749.9828,498.6351 c -1.9964,1.72031 -2.7682,2.22838 -6.698,1.03119 -1.6422,-5.5824 5.1883,-3.92632 6.698,-1.03119 z"
           style="fill:#000000;fill-opacity:1;stroke:none" />
        <path
           sodipodi:type="arc"
           style="color:#000000;fill:#ffffff;fill-opacity:1;fill-rule:nonzero;stroke:none;stroke-width:1.57599998;marker:none;visibility:visible;display:inline;overflow:visible;enable-background:accumulate"
           id="path4238"
           sodipodi:cx="-1698.5"
           sodipodi:cy="424.48718"
           sodipodi:rx="4"
           sodipodi:ry="4.375"
           d="m -1694.5,424.48718 c 0,2.41625 -1.7909,4.375 -4,4.375 -2.2091,0 -4,-1.95875 -4,-4.375 0,-2.41624 1.7909,-4.375 4,-4.375 2.2091,0 4,1.95876 4,4.375 z"
           transform="matrix(0.82180923,0.18708503,-0.23709906,0.97234655,-249.48167,393.92191)" />
        <path
           transform="matrix(0.24339944,0.10982456,-0.14057543,0.31155129,-1273.8971,541.67793)"
           d="m -1694.5,424.48718 c 0,2.41625 -1.7909,4.375 -4,4.375 -2.2091,0 -4,-1.95875 -4,-4.375 0,-2.41624 1.7909,-4.375 4,-4.375 2.2091,0 4,1.95876 4,4.375 z"
           sodipodi:ry="4.375"
           sodipodi:rx="4"
           sodipodi:cy="424.48718"
           sodipodi:cx="-1698.5"
           id="path4240"
           style="color:#000000;fill:#000000;fill-opacity:1;fill-rule:nonzero;stroke:none;stroke-width:1.57599998;marker:none;visibility:visible;display:inline;overflow:visible;enable-background:accumulate"
           sodipodi:type="arc" />
        <path
           transform="matrix(0.82180923,0.18708503,-0.23709906,0.97234655,-260.63602,392.458)"
           d="m -1694.5,424.48718 c 0,2.41625 -1.7909,4.375 -4,4.375 -2.2091,0 -4,-1.95875 -4,-4.375 0,-2.41624 1.7909,-4.375 4,-4.375 2.2091,0 4,1.95876 4,4.375 z"
           sodipodi:ry="4.375"
           sodipodi:rx="4"
           sodipodi:cy="424.48718"
           sodipodi:cx="-1698.5"
           id="path4242"
           style="color:#000000;fill:#ffffff;fill-opacity:1;fill-rule:nonzero;stroke:none;stroke-width:1.57599998;marker:none;visibility:visible;display:inline;overflow:visible;enable-background:accumulate"
           sodipodi:type="arc" />
        <path
           sodipodi:type="arc"
           style="color:#000000;fill:#000000;fill-opacity:1;fill-rule:nonzero;stroke:none;stroke-width:1.57599998;marker:none;visibility:visible;display:inline;overflow:visible;enable-background:accumulate"
           id="path4244"
           sodipodi:cx="-1698.5"
           sodipodi:cy="424.48718"
           sodipodi:rx="4"
           sodipodi:ry="4.375"
           d="m -1694.5,424.48718 c 0,2.41625 -1.7909,4.375 -4,4.375 -2.2091,0 -4,-1.95875 -4,-4.375 0,-2.41624 1.7909,-4.375 4,-4.375 2.2091,0 4,1.95876 4,4.375 z"
           transform="matrix(0.25992328,0.06119321,-0.0783273,0.33270181,-1283.4977,448.63555)" />
      </g>
      <path
         transform="matrix(-2.7997582,0,0,1.1347867,-1804.1558,923.82248)"
         d="m 107.40625,565.15625 -15.34375,8.875 15.34375,8.84375 15.34375,-8.84375 -15.34375,-8.875 z"
         id="path4318"
         style="fill:none;stroke:none"
         inkscape:original="M 107.40625 565.15625 L 92.0625 574.03125 L 107.40625 582.875 L 122.75 574.03125 L 107.40625 565.15625 z "
         inkscape:radius="0"
         sodipodi:type="inkscape:offset" />
    </g>
  </g>
</svg>
