<?xml version="1.0" encoding="UTF-8" standalone="no"?>
<!-- Created with Inkscape (http://www.inkscape.org/) -->

<svg
   xmlns:dc="http://purl.org/dc/elements/1.1/"
   xmlns:cc="http://creativecommons.org/ns#"
   xmlns:rdf="http://www.w3.org/1999/02/22-rdf-syntax-ns#"
   xmlns:svg="http://www.w3.org/2000/svg"
   xmlns="http://www.w3.org/2000/svg"
   xmlns:sodipodi="http://sodipodi.sourceforge.net/DTD/sodipodi-0.dtd"
   xmlns:inkscape="http://www.inkscape.org/namespaces/inkscape"
   width="85.91758"
   height="43.042122"
   id="svg2"
   version="1.1"
   inkscape:version="0.92.3 (2405546, 2018-03-11)"
   sodipodi:docname="SamMove.svg">
  <defs
     id="defs4" />
  <sodipodi:namedview
     id="base"
     pagecolor="#ffffff"
     bordercolor="#666666"
     borderopacity="1.0"
     inkscape:pageopacity="0.0"
     inkscape:pageshadow="2"
     inkscape:zoom="16"
     inkscape:cx="48.259389"
     inkscape:cy="17.867806"
     inkscape:document-units="px"
     inkscape:current-layer="g4226"
     showgrid="true"
     inkscape:window-width="1280"
     inkscape:window-height="747"
     inkscape:window-x="-8"
     inkscape:window-y="22"
     inkscape:window-maximized="1"
     showguides="true"
     inkscape:guide-bbox="true"
     fit-margin-top="0"
     fit-margin-left="0"
     fit-margin-right="0"
     fit-margin-bottom="0">
    <inkscape:grid
       units="px"
       empspacing="7"
       visible="true"
       enabled="false"
       snapvisiblegridlinesonly="false"
       type="axonomgrid"
       id="grid2985"
       originy="541.34971px"
       originx="2146.4119px" />
    <sodipodi:guide
       orientation="0,1"
       position="1562.5726,1497.0854"
       id="guide4040"
       inkscape:locked="false" />
  </sodipodi:namedview>
  <metadata
     id="metadata7">
    <rdf:RDF>
      <cc:Work
         rdf:about="">
        <dc:format>image/svg+xml</dc:format>
        <dc:type
           rdf:resource="http://purl.org/dc/dcmitype/StillImage" />
        <dc:title />
      </cc:Work>
    </rdf:RDF>
  </metadata>
  <g
     inkscape:label="Livello 1"
     inkscape:groupmode="layer"
     id="layer1"
     transform="translate(2146.4119,-1550.8698)">
    <g
       id="g4255" />
    <g
       id="g4423"
       transform="matrix(-1,0,0,1,-4208.3204,-2.8284271)">
      <g
         transform="translate(-362.04388,1085.0562)"
         id="g4226">
        <ellipse
           style="fill:#008800;fill-opacity:1;stroke:#008800;stroke-width:2.95130491;stroke-linecap:round;stroke-linejoin:round;stroke-miterlimit:4;stroke-dasharray:none;stroke-opacity:1"
           id="path849"
           cx="1643.7019"
           cy="767.59729"
           transform="matrix(-0.98679457,-0.16197678,-0.16348878,0.98654519,0,0)"
           rx="13.147724"
           ry="12.807223" />
        <path
           sodipodi:nodetypes="ccc"
           inkscape:connector-curvature="0"
           id="path4228"
           d="m -1751.6798,495.51329 c 0.2821,3.977 0.1164,11.5275 0.1164,11.5275 l -6.5707,2.3728"
           style="fill:none;stroke:#008800;stroke-width:3.33321357;stroke-linecap:round;stroke-linejoin:round;stroke-miterlimit:4;stroke-opacity:1;stroke-dasharray:none" />
        <path
           sodipodi:nodetypes="ccc"
           inkscape:connector-curvature="0"
           id="path4230"
           d="m -1739.5902,496.09419 c 0.2821,3.977 0.1164,11.5275 0.1164,11.5275 l -6.5707,2.3728"
           style="fill:none;stroke:#008800;stroke-width:3.33321357;stroke-linecap:round;stroke-linejoin:round;stroke-miterlimit:4;stroke-opacity:1;stroke-dasharray:none" />
        <path
           sodipodi:nodetypes="cccccccccsc"
           inkscape:connector-curvature="0"
           id="path4234"
           d="m -1756.0679,479.29717 c -0.2211,-5.17075 4.7592,-9.81557 4.7592,-9.81557 1.0736,3.81845 -1.065,4.34531 2.4685,5.58372 3.5755,-1.54253 0.07,-5.30242 5.3097,-6.42332 -1.6635,1.9596 2.4656,2.99241 2.9623,5.74205 2.9249,-2.1591 8.8655,-1.36163 13.0802,-2.07396 -3.1809,2.9186 -4.7962,1.63841 -5.2591,4.33101 1.5008,2.39727 2.8915,3.28158 5.3475,3.09968 -4.577,2.55568 -4.6676,2.57003 -8.5286,2.66563 -1.081,-0.69631 -1.4481,-0.84593 -3.3564,-0.81921 -6.2134,0.087 -14.039,0.6733 -16.7833,-2.29003 z"
           style="fill:#ff7700;fill-opacity:1;stroke:none" />
        <path
           sodipodi:nodetypes="ccc"
           inkscape:connector-curvature="0"
           id="path4236"
           d="m -1749.9828,498.6351 c -1.9964,1.72031 -2.7682,2.22838 -6.698,1.03119 -1.6422,-5.5824 5.1883,-3.92632 6.698,-1.03119 z"
           style="fill:#000000;fill-opacity:1;stroke:none" />
        <ellipse
           style="color:#000000;display:inline;overflow:visible;visibility:visible;fill:#ffffff;fill-opacity:1;fill-rule:nonzero;stroke:none;stroke-width:1.30997515;marker:none;enable-background:accumulate"
           id="path4238"
           transform="matrix(0.98324429,0.18229278,-0.28683078,0.95798127,0,0)"
           cx="-1541.5964"
           cy="802.57855"
           rx="3.3432555"
           ry="3.6164474" />
        <ellipse
           transform="matrix(0.93863287,0.34491786,-0.48462849,0.87472008,0,0)"
           id="path4240"
           style="color:#000000;display:inline;overflow:visible;visibility:visible;fill:#000000;fill-opacity:1;fill-rule:nonzero;stroke:none;stroke-width:0.43223342;marker:none;enable-background:accumulate"
           cx="-1307.736"
           cy="1071.9543"
           rx="1.0372509"
           ry="1.2690494" />
        <ellipse
           transform="matrix(0.98324429,0.18229278,-0.28683078,0.95798127,0,0)"
           id="path4242"
           style="color:#000000;display:inline;overflow:visible;visibility:visible;fill:#ffffff;fill-opacity:1;fill-rule:nonzero;stroke:none;stroke-width:1.30997515;marker:none;enable-background:accumulate"
           cx="-1552.6882"
           cy="803.44464"
           rx="3.3432555"
           ry="3.6164474" />
        <ellipse
           style="color:#000000;display:inline;overflow:visible;visibility:visible;fill:#000000;fill-opacity:1;fill-rule:nonzero;stroke:none;stroke-width:0.43058619;marker:none;enable-background:accumulate"
           id="path4244"
           transform="matrix(0.98211087,0.18830359,-0.27770905,0.96066523,0,0)"
           cx="-1560.8623"
           cy="811.23187"
           rx="1.0586312"
           ry="1.2339602" />
        <ellipse
           style="fill:#008800;fill-opacity:1;stroke:#00a100;stroke-width:2.51374292;stroke-linecap:round;stroke-linejoin:round;stroke-miterlimit:4;stroke-dasharray:none;stroke-opacity:1"
           id="path853"
           cx="1684.9922"
           cy="-645.30042"
           transform="matrix(-0.80312149,0.5958153,0.5958153,0.80312149,0,0)"
           rx="0.99312854"
           ry="1.5243785" />
      </g>
      <path
         transform="matrix(-2.7997582,0,0,1.1347867,-1804.1558,923.82248)"
         d="m 107.40625,565.15625 -15.34375,8.875 15.34375,8.84375 15.34375,-8.84375 -15.34375,-8.875 z"
         id="path4318"
         style="fill:none;stroke:none"
         inkscape:original="M 107.40625 565.15625 L 92.0625 574.03125 L 107.40625 582.875 L 122.75 574.03125 L 107.40625 565.15625 z "
         inkscape:radius="0"
         sodipodi:type="inkscape:offset" />
    </g>
  </g>
</svg>
