<?xml version="1.0" encoding="UTF-8" standalone="no"?>
<!-- Created with Inkscape (http://www.inkscape.org/) -->

<svg
   xmlns:dc="http://purl.org/dc/elements/1.1/"
   xmlns:cc="http://creativecommons.org/ns#"
   xmlns:rdf="http://www.w3.org/1999/02/22-rdf-syntax-ns#"
   xmlns:svg="http://www.w3.org/2000/svg"
   xmlns="http://www.w3.org/2000/svg"
   xmlns:sodipodi="http://sodipodi.sourceforge.net/DTD/sodipodi-0.dtd"
   xmlns:inkscape="http://www.inkscape.org/namespaces/inkscape"
   width="85.817581"
   height="51.180138"
   id="svg2"
   version="1.1"
   inkscape:version="0.48.5 r10040"
   sodipodi:docname="SamStand.svg">
  <defs
     id="defs4" />
  <sodipodi:namedview
     id="base"
     pagecolor="#ffffff"
     bordercolor="#666666"
     borderopacity="1.0"
     inkscape:pageopacity="0.0"
     inkscape:pageshadow="2"
     inkscape:zoom="0.70710678"
     inkscape:cx="172.42405"
     inkscape:cy="100.41461"
     inkscape:document-units="px"
     inkscape:current-layer="layer1"
     showgrid="true"
     inkscape:window-width="1366"
     inkscape:window-height="715"
     inkscape:window-x="-8"
     inkscape:window-y="-8"
     inkscape:window-maximized="1"
     showguides="true"
     inkscape:guide-bbox="true"
     fit-margin-top="0"
     fit-margin-left="-0.1"
     fit-margin-right="0"
     fit-margin-bottom="0">
    <inkscape:grid
       units="px"
       empspacing="7"
       visible="true"
       enabled="false"
       snapvisiblegridlinesonly="false"
       type="axonomgrid"
       id="grid2985"
       originy="546.68276px"
       originx="2005.2078px" />
    <sodipodi:guide
       orientation="0,1"
       position="1421.3685,1502.4185"
       id="guide4040" />
  </sodipodi:namedview>
  <metadata
     id="metadata7">
    <rdf:RDF>
      <cc:Work
         rdf:about="">
        <dc:format>image/svg+xml</dc:format>
        <dc:type
           rdf:resource="http://purl.org/dc/dcmitype/StillImage" />
        <dc:title />
      </cc:Work>
    </rdf:RDF>
  </metadata>
  <g
     inkscape:label="Livello 1"
     inkscape:groupmode="layer"
     id="layer1"
     transform="translate(2005.2078,-1548.0648)">
    <g
       id="g4399"
       transform="matrix(-1,0,0,1,-3943.79,-3.5355339)">
      <g
         transform="translate(-285.99367,1084.2842)"
         id="g4206">
        <path
           style="fill:none;stroke:#008800;stroke-width:3.33321357;stroke-linecap:round;stroke-linejoin:round;stroke-miterlimit:4;stroke-opacity:1;stroke-dasharray:none"
           d="m -1704.3036,502.2999 c 0.2821,3.977 0.1164,11.5275 0.1164,11.5275 l -6.5707,2.3728"
           id="path4208"
           inkscape:connector-curvature="0"
           sodipodi:nodetypes="ccc" />
        <path
           style="fill:none;stroke:#008800;stroke-width:3.33321357;stroke-linecap:round;stroke-linejoin:round;stroke-miterlimit:4;stroke-opacity:1;stroke-dasharray:none"
           d="m -1692.214,502.8808 c 0.2821,3.977 0.1164,11.5275 0.1164,11.5275 l -6.5707,2.3728"
           id="path4210"
           inkscape:connector-curvature="0"
           sodipodi:nodetypes="ccc" />
        <path
           style="color:#000000;fill:#008800;fill-opacity:1;fill-rule:nonzero;stroke:none;stroke-width:1.57599998;marker:none;visibility:visible;display:inline;overflow:visible;enable-background:accumulate"
           d="m -1684.4908,489.9346 c -2.7722,8.52706 -2.0536,15.3 -20.3257,15.6536 -9.0779,0.1757 -9.5459,-6.9674 -9.5459,-15.9983 0,-9.0309 6.6535,-14.7609 15.7331,-14.7609 9.0797,0 18.3694,2.0915 14.1385,15.1056 z"
           id="path4212"
           inkscape:connector-curvature="0"
           sodipodi:nodetypes="sssss" />
        <path
           style="fill:#ff7700;fill-opacity:1;stroke:none"
           d="m -1709.3546,478.3249 c 4.8171,-7.8224 12.5816,-8.48975 12.5816,-8.48975 -2.1526,1.56455 -2.7444,3.19626 -2.1277,4.965 3.5755,-1.54253 2.1914,-6.36308 7.431,-7.48398 -1.6635,1.9596 -1.1583,4.09727 -0.6616,6.84691 2.9249,-2.1591 8.6003,-1.67104 12.0195,-3.44398 -3.1809,2.9186 -4.8846,2.65488 -5.3475,5.34748 2.3405,-2.3757 6.4712,2.97222 8.9272,2.79032 -3.5591,1.7698 -5.3439,0.1166 -6.8059,3.7504 -2.5429,-0.13723 -4.3135,-2.21512 -6.9155,-2.14543 -8.7385,0.23404 -17.7679,2.88555 -19.1011,-2.13697 z"
           id="path4214"
           inkscape:connector-curvature="0"
           sodipodi:nodetypes="cccccccccsc" />
        <path
           style="fill:#000000;fill-opacity:1;stroke:none"
           d="m -1709.9429,498.0916 c 2.3809,1.17767 4.8799,0.94195 7.3363,0.5435 -0.2776,1.68906 -2.5914,3.64259 -6.5212,2.4454 -0.4897,-0.9883 -0.8961,-1.9797 -0.8151,-2.9889 z"
           id="path4216"
           inkscape:connector-curvature="0"
           sodipodi:nodetypes="cccc" />
        <path
           transform="matrix(0.83916636,0.07855596,-0.10855599,0.99493184,-227.14264,199.26616)"
           d="m -1694.5,424.48718 c 0,2.41625 -1.7909,4.375 -4,4.375 -2.2091,0 -4,-1.95875 -4,-4.375 0,-2.41624 1.7909,-4.375 4,-4.375 2.2091,0 4,1.95876 4,4.375 z"
           sodipodi:ry="4.375"
           sodipodi:rx="4"
           sodipodi:cy="424.48718"
           sodipodi:cx="-1698.5"
           id="path4218"
           style="color:#000000;fill:#ffffff;fill-opacity:1;fill-rule:nonzero;stroke:none;stroke-width:1.57599998;marker:none;visibility:visible;display:inline;overflow:visible;enable-background:accumulate"
           sodipodi:type="arc" />
        <path
           sodipodi:type="arc"
           style="color:#000000;fill:#000000;fill-opacity:1;fill-rule:nonzero;stroke:none;stroke-width:1.57599998;marker:none;visibility:visible;display:inline;overflow:visible;enable-background:accumulate"
           id="path4220"
           sodipodi:cx="-1698.5"
           sodipodi:cy="424.48718"
           sodipodi:rx="4"
           sodipodi:ry="4.375"
           d="m -1694.5,424.48718 c 0,2.41625 -1.7909,4.375 -4,4.375 -2.2091,0 -4,-1.95875 -4,-4.375 0,-2.41624 1.7909,-4.375 4,-4.375 2.2091,0 4,1.95876 4,4.375 z"
           transform="matrix(0.26567609,0.02685025,-0.03436831,0.3400654,-1234.0417,389.76611)" />
        <path
           sodipodi:type="arc"
           style="color:#000000;fill:#ffffff;fill-opacity:1;fill-rule:nonzero;stroke:none;stroke-width:1.57599998;marker:none;visibility:visible;display:inline;overflow:visible;enable-background:accumulate"
           id="path4222"
           sodipodi:cx="-1698.5"
           sodipodi:cy="424.48718"
           sodipodi:rx="4"
           sodipodi:ry="4.375"
           d="m -1694.5,424.48718 c 0,2.41625 -1.7909,4.375 -4,4.375 -2.2091,0 -4,-1.95875 -4,-4.375 0,-2.41624 1.7909,-4.375 4,-4.375 2.2091,0 4,1.95876 4,4.375 z"
           transform="matrix(0.83916636,0.07855596,-0.10855599,0.99493184,-238.39264,199.26616)" />
        <path
           transform="matrix(0.26567609,0.02685025,-0.03436831,0.3400654,-1245.2917,389.76611)"
           d="m -1694.5,424.48718 c 0,2.41625 -1.7909,4.375 -4,4.375 -2.2091,0 -4,-1.95875 -4,-4.375 0,-2.41624 1.7909,-4.375 4,-4.375 2.2091,0 4,1.95876 4,4.375 z"
           sodipodi:ry="4.375"
           sodipodi:rx="4"
           sodipodi:cy="424.48718"
           sodipodi:cx="-1698.5"
           id="path4224"
           style="color:#000000;fill:#000000;fill-opacity:1;fill-rule:nonzero;stroke:none;stroke-width:1.57599998;marker:none;visibility:visible;display:inline;overflow:visible;enable-background:accumulate"
           sodipodi:type="arc" />
      </g>
      <path
         transform="matrix(-2.7997582,0,0,1.1347867,-1680.7294,925.78084)"
         d="m 107.40625,565.15625 -15.34375,8.875 15.34375,8.84375 15.34375,-8.84375 -15.34375,-8.875 z"
         id="path4316"
         style="fill:none;stroke:none"
         inkscape:original="M 107.40625 565.15625 L 92.0625 574.03125 L 107.40625 582.875 L 122.75 574.03125 L 107.40625 565.15625 z "
         inkscape:radius="0"
         sodipodi:type="inkscape:offset" />
    </g>
    <g
       id="g4255" />
  </g>
</svg>
