<?xml version="1.0" encoding="UTF-8" standalone="no"?>
<!-- Created with Inkscape (http://www.inkscape.org/) -->

<svg
   xmlns:dc="http://purl.org/dc/elements/1.1/"
   xmlns:cc="http://creativecommons.org/ns#"
   xmlns:rdf="http://www.w3.org/1999/02/22-rdf-syntax-ns#"
   xmlns:svg="http://www.w3.org/2000/svg"
   xmlns="http://www.w3.org/2000/svg"
   xmlns:sodipodi="http://sodipodi.sourceforge.net/DTD/sodipodi-0.dtd"
   xmlns:inkscape="http://www.inkscape.org/namespaces/inkscape"
   width="85.817581"
   height="46.75153"
   id="svg2"
   version="1.1"
   inkscape:version="0.92.3 (2405546, 2018-03-11)"
   sodipodi:docname="SlickMove.svg">
  <defs
     id="defs4" />
  <sodipodi:namedview
     id="base"
     pagecolor="#ffffff"
     bordercolor="#666666"
     borderopacity="1.0"
     inkscape:pageopacity="0.0"
     inkscape:pageshadow="2"
     inkscape:zoom="4"
     inkscape:cx="-4.2596118"
     inkscape:cy="5.9444054"
     inkscape:document-units="px"
     inkscape:current-layer="g4187"
     showgrid="true"
     inkscape:window-width="1280"
     inkscape:window-height="747"
     inkscape:window-x="-8"
     inkscape:window-y="22"
     inkscape:window-maximized="1"
     showguides="true"
     inkscape:guide-bbox="true"
     fit-margin-top="0"
     fit-margin-left="-0.1"
     fit-margin-right="0"
     fit-margin-bottom="0">
    <inkscape:grid
       units="px"
       empspacing="7"
       visible="true"
       enabled="false"
       snapvisiblegridlinesonly="false"
       type="axonomgrid"
       id="grid2985"
       originy="547.61425px"
       originx="1820.6895px" />
    <sodipodi:guide
       orientation="0,1"
       position="1236.8502,1503.35"
       id="guide4040"
       inkscape:locked="false" />
  </sodipodi:namedview>
  <metadata
     id="metadata7">
    <rdf:RDF>
      <cc:Work
         rdf:about="">
        <dc:format>image/svg+xml</dc:format>
        <dc:type
           rdf:resource="http://purl.org/dc/dcmitype/StillImage" />
        <dc:title />
      </cc:Work>
    </rdf:RDF>
  </metadata>
  <g
     inkscape:label="Livello 1"
     inkscape:groupmode="layer"
     id="layer1"
     transform="translate(1820.6895,-1553.4249)">
    <ellipse
       style="fill:#008800;fill-opacity:1;stroke:#008800;stroke-width:3.94101095;stroke-linecap:round;stroke-linejoin:round;stroke-miterlimit:4;stroke-dasharray:none;stroke-opacity:1"
       id="path832"
       cx="-1778.1747"
       cy="1579.0073"
       rx="13.848407"
       ry="13.008717" />
    <g
       id="g4255" />
    <g
       id="g4300"
       transform="matrix(-1,0,0,1,-3750.1468,-7.4852814)">
      <g
         transform="translate(-226.28872,1158.7904)"
         id="g4187">
        <path
           style="fill:none;stroke:#008800;stroke-width:3.33321357;stroke-linecap:round;stroke-linejoin:round;stroke-miterlimit:4;stroke-opacity:1;stroke-dasharray:none"
           d="m -1751.5536,432.6749 c 0.2821,3.977 0.1164,11.5275 0.1164,11.5275 l -6.5707,2.3728"
           id="path4189"
           inkscape:connector-curvature="0"
           sodipodi:nodetypes="ccc" />
        <path
           style="fill:none;stroke:#008800;stroke-width:3.33321357;stroke-linecap:round;stroke-linejoin:round;stroke-miterlimit:4;stroke-opacity:1;stroke-dasharray:none"
           d="m -1739.464,433.2558 c 0.2821,3.977 0.1164,11.5275 0.1164,11.5275 l -6.5707,2.3728"
           id="path4191"
           inkscape:connector-curvature="0"
           sodipodi:nodetypes="ccc" />
        <path
           style="fill:#ff7700;fill-opacity:1;stroke:none"
           d="m -1756.3394,416.45878 c 3.754,-9.07876 9.6039,-14.30903 9.6906,-14.2065 -0.9594,1.9623 -0.4146,6.61492 0.2463,8.69302 2.559,-2.5148 1.0107,-7.70462 6.2503,-8.82552 -1.6635,1.9596 0.8134,5.85172 0.4262,8.15942 2.9249,-2.1591 1.8998,-6.51908 6.2913,-7.09878 -3.1809,2.9186 1.1258,5.88106 0.6629,8.57366 2.3405,-2.3757 1.4773,-3.17683 3.9333,-3.35873 -3.5591,1.7698 0.4197,9.02139 -2.8985,12.30164 -11.0615,-0.5981 -22.5805,2.27979 -24.6024,-4.23821 z"
           id="path4195"
           inkscape:connector-curvature="0"
           sodipodi:nodetypes="cccccccccc" />
        <path
           style="fill:#000000;fill-opacity:1;stroke:none"
           d="m -1762.0507,416.6841 c 4.8122,0.77775 33.5262,6.3725 33.5262,6.3725 l -0.3169,2.85445 c -5.227,0.80142 -12.3542,-4.16777 -13.9608,-1.38775 -3.9622,6.85627 -9.6364,5.76239 -11.3404,-1.62032 -6.8054,7.74861 -11.5315,4.00606 -7.9081,-6.21888 z"
           id="path4197"
           inkscape:connector-curvature="0"
           sodipodi:nodetypes="cccscc" />
        <ellipse
           transform="matrix(0.79038979,0.61260426,-0.6040386,0.79695506,0,0)"
           id="path4202"
           style="color:#000000;display:inline;overflow:visible;visibility:visible;fill:#ffffff;fill-opacity:1;fill-rule:nonzero;stroke:none;stroke-width:2.36309528;marker:none;enable-background:accumulate"
           cx="-1145.1053"
           cy="1410.0492"
           rx="1.1623621"
           ry="2.6199026" />
        <ellipse
           style="fill:#000000;fill-opacity:1;stroke:#000000;stroke-width:2.02500534;stroke-linecap:round;stroke-linejoin:round;stroke-miterlimit:4;stroke-dasharray:none;stroke-opacity:1"
           id="path836"
           cx="1700.0017"
           cy="611.78833"
           transform="matrix(-0.99482393,-0.10161371,-0.10161371,0.99482393,0,0)"
           rx="2.2600737"
           ry="0.22231895" />
        <ellipse
           transform="matrix(0.79038979,0.61260426,-0.6040386,0.79695506,0,0)"
           id="path4202-7"
           style="color:#000000;display:inline;overflow:visible;visibility:visible;fill:#ffffff;fill-opacity:1;fill-rule:nonzero;stroke:none;stroke-width:2.36309528;marker:none;enable-background:accumulate"
           cx="-1134.7758"
           cy="1404.5703"
           rx="1.1623621"
           ry="2.6199026" />
      </g>
      <path
         transform="matrix(-2.7997582,0,0,1.1347867,-1671.6045,932.8763)"
         d="m 107.40625,565.15625 -15.34375,8.875 15.34375,8.84375 15.34375,-8.84375 -15.34375,-8.875 z"
         id="path4298"
         style="fill:none;stroke:none"
         inkscape:original="M 107.40625 565.15625 L 92.0625 574.03125 L 107.40625 582.875 L 122.75 574.03125 L 107.40625 565.15625 z "
         inkscape:radius="0"
         sodipodi:type="inkscape:offset" />
    </g>
  </g>
</svg>
